ISO-10303-21;
HEADER;
/* Generated by software containing ST-Developer
 * from STEP Tools, Inc. (www.steptools.com) 
 */

FILE_DESCRIPTION(
/* description */ (''),
/* implementation_level */ '2;1');

FILE_NAME(
/* name */ 'R1-C4 - Central-foot.step',
/* time_stamp */ '2026-09-30T00:59:47+02:00',
/* author */ (''),
/* organization */ (''),
/* preprocessor_version */ 'ST-DEVELOPER v20.2',
/* originating_system */ 'Autodesk Translation Framework v15.15.0.0',
/* authorisation */ '');

FILE_SCHEMA (('AUTOMOTIVE_DESIGN { 1 0 10303 214 3 1 1 }'));
ENDSEC;

DATA;
#10=MECHANICAL_DESIGN_GEOMETRIC_PRESENTATION_REPRESENTATION('',(#13),#1066);
#11=SHAPE_REPRESENTATION_RELATIONSHIP('SRR','None',#1076,#12);
#12=ADVANCED_BREP_SHAPE_REPRESENTATION('',(#14),#1065);
#13=STYLED_ITEM('',(#1085),#14);
#14=MANIFOLD_SOLID_BREP('Corps3',#662);
#15=ELLIPSE('',#703,0.216725884791638,0.2);
#16=ELLIPSE('',#705,0.216725884791746,0.2);
#17=FACE_BOUND('',#95,.T.);
#18=FACE_BOUND('',#96,.T.);
#19=FACE_BOUND('',#98,.T.);
#20=FACE_BOUND('',#99,.T.);
#21=FACE_BOUND('',#113,.T.);
#22=FACE_BOUND('',#115,.T.);
#23=FACE_BOUND('',#118,.T.);
#24=FACE_BOUND('',#120,.T.);
#25=FACE_BOUND('',#123,.T.);
#26=FACE_BOUND('',#125,.T.);
#27=FACE_BOUND('',#126,.T.);
#28=FACE_BOUND('',#127,.T.);
#29=FACE_BOUND('',#128,.T.);
#30=FACE_BOUND('',#129,.T.);
#31=FACE_BOUND('',#132,.T.);
#32=FACE_BOUND('',#135,.T.);
#33=PLANE('',#682);
#34=PLANE('',#683);
#35=PLANE('',#684);
#36=PLANE('',#685);
#37=PLANE('',#686);
#38=PLANE('',#693);
#39=PLANE('',#694);
#40=PLANE('',#695);
#41=PLANE('',#696);
#42=PLANE('',#697);
#43=PLANE('',#698);
#44=PLANE('',#699);
#45=PLANE('',#700);
#46=PLANE('',#707);
#47=PLANE('',#708);
#48=PLANE('',#709);
#49=PLANE('',#710);
#50=PLANE('',#711);
#51=PLANE('',#712);
#52=PLANE('',#713);
#53=PLANE('',#714);
#54=PLANE('',#715);
#55=PLANE('',#716);
#56=PLANE('',#717);
#57=PLANE('',#718);
#58=FACE_OUTER_BOUND('',#89,.T.);
#59=FACE_OUTER_BOUND('',#90,.T.);
#60=FACE_OUTER_BOUND('',#91,.T.);
#61=FACE_OUTER_BOUND('',#92,.T.);
#62=FACE_OUTER_BOUND('',#93,.T.);
#63=FACE_OUTER_BOUND('',#94,.T.);
#64=FACE_OUTER_BOUND('',#97,.T.);
#65=FACE_OUTER_BOUND('',#100,.T.);
#66=FACE_OUTER_BOUND('',#101,.T.);
#67=FACE_OUTER_BOUND('',#102,.T.);
#68=FACE_OUTER_BOUND('',#103,.T.);
#69=FACE_OUTER_BOUND('',#104,.T.);
#70=FACE_OUTER_BOUND('',#105,.T.);
#71=FACE_OUTER_BOUND('',#106,.T.);
#72=FACE_OUTER_BOUND('',#107,.T.);
#73=FACE_OUTER_BOUND('',#108,.T.);
#74=FACE_OUTER_BOUND('',#109,.T.);
#75=FACE_OUTER_BOUND('',#110,.T.);
#76=FACE_OUTER_BOUND('',#111,.T.);
#77=FACE_OUTER_BOUND('',#112,.T.);
#78=FACE_OUTER_BOUND('',#114,.T.);
#79=FACE_OUTER_BOUND('',#116,.T.);
#80=FACE_OUTER_BOUND('',#117,.T.);
#81=FACE_OUTER_BOUND('',#119,.T.);
#82=FACE_OUTER_BOUND('',#121,.T.);
#83=FACE_OUTER_BOUND('',#122,.T.);
#84=FACE_OUTER_BOUND('',#124,.T.);
#85=FACE_OUTER_BOUND('',#130,.T.);
#86=FACE_OUTER_BOUND('',#131,.T.);
#87=FACE_OUTER_BOUND('',#133,.T.);
#88=FACE_OUTER_BOUND('',#134,.T.);
#89=EDGE_LOOP('',(#447,#448,#449,#450));
#90=EDGE_LOOP('',(#451,#452,#453,#454));
#91=EDGE_LOOP('',(#455,#456,#457,#458));
#92=EDGE_LOOP('',(#459,#460,#461,#462));
#93=EDGE_LOOP('',(#463,#464,#465,#466));
#94=EDGE_LOOP('',(#467,#468,#469,#470));
#95=EDGE_LOOP('',(#471));
#96=EDGE_LOOP('',(#472));
#97=EDGE_LOOP('',(#473,#474,#475,#476,#477,#478,#479,#480));
#98=EDGE_LOOP('',(#481));
#99=EDGE_LOOP('',(#482));
#100=EDGE_LOOP('',(#483,#484,#485,#486));
#101=EDGE_LOOP('',(#487,#488,#489,#490));
#102=EDGE_LOOP('',(#491,#492,#493,#494,#495,#496,#497,#498));
#103=EDGE_LOOP('',(#499,#500,#501,#502));
#104=EDGE_LOOP('',(#503,#504,#505,#506));
#105=EDGE_LOOP('',(#507,#508,#509,#510));
#106=EDGE_LOOP('',(#511,#512,#513,#514));
#107=EDGE_LOOP('',(#515,#516,#517,#518));
#108=EDGE_LOOP('',(#519,#520,#521,#522));
#109=EDGE_LOOP('',(#523,#524,#525,#526));
#110=EDGE_LOOP('',(#527,#528,#529,#530));
#111=EDGE_LOOP('',(#531,#532,#533,#534));
#112=EDGE_LOOP('',(#535,#536,#537,#538,#539,#540,#541,#542));
#113=EDGE_LOOP('',(#543,#544,#545,#546));
#114=EDGE_LOOP('',(#547,#548,#549,#550,#551,#552,#553,#554));
#115=EDGE_LOOP('',(#555,#556,#557,#558));
#116=EDGE_LOOP('',(#559,#560,#561,#562));
#117=EDGE_LOOP('',(#563,#564,#565,#566));
#118=EDGE_LOOP('',(#567,#568,#569,#570));
#119=EDGE_LOOP('',(#571,#572,#573,#574,#575,#576,#577,#578));
#120=EDGE_LOOP('',(#579));
#121=EDGE_LOOP('',(#580,#581,#582,#583));
#122=EDGE_LOOP('',(#584,#585,#586,#587,#588));
#123=EDGE_LOOP('',(#589));
#124=EDGE_LOOP('',(#590,#591,#592,#593));
#125=EDGE_LOOP('',(#594));
#126=EDGE_LOOP('',(#595));
#127=EDGE_LOOP('',(#596));
#128=EDGE_LOOP('',(#597));
#129=EDGE_LOOP('',(#598,#599,#600,#601));
#130=EDGE_LOOP('',(#602,#603,#604,#605));
#131=EDGE_LOOP('',(#606,#607,#608,#609,#610));
#132=EDGE_LOOP('',(#611));
#133=EDGE_LOOP('',(#612,#613,#614,#615));
#134=EDGE_LOOP('',(#616,#617,#618,#619,#620,#621,#622,#623));
#135=EDGE_LOOP('',(#624));
#136=LINE('',#889,#213);
#137=LINE('',#895,#214);
#138=LINE('',#900,#215);
#139=LINE('',#902,#216);
#140=LINE('',#904,#217);
#141=LINE('',#905,#218);
#142=LINE('',#908,#219);
#143=LINE('',#910,#220);
#144=LINE('',#911,#221);
#145=LINE('',#914,#222);
#146=LINE('',#916,#223);
#147=LINE('',#917,#224);
#148=LINE('',#919,#225);
#149=LINE('',#922,#226);
#150=LINE('',#924,#227);
#151=LINE('',#926,#228);
#152=LINE('',#928,#229);
#153=LINE('',#929,#230);
#154=LINE('',#931,#231);
#155=LINE('',#933,#232);
#156=LINE('',#934,#233);
#157=LINE('',#941,#234);
#158=LINE('',#945,#235);
#159=LINE('',#950,#236);
#160=LINE('',#951,#237);
#161=LINE('',#952,#238);
#162=LINE('',#956,#239);
#163=LINE('',#958,#240);
#164=LINE('',#960,#241);
#165=LINE('',#961,#242);
#166=LINE('',#964,#243);
#167=LINE('',#965,#244);
#168=LINE('',#968,#245);
#169=LINE('',#969,#246);
#170=LINE('',#971,#247);
#171=LINE('',#975,#248);
#172=LINE('',#977,#249);
#173=LINE('',#979,#250);
#174=LINE('',#980,#251);
#175=LINE('',#983,#252);
#176=LINE('',#985,#253);
#177=LINE('',#986,#254);
#178=LINE('',#989,#255);
#179=LINE('',#991,#256);
#180=LINE('',#992,#257);
#181=LINE('',#997,#258);
#182=LINE('',#1003,#259);
#183=LINE('',#1007,#260);
#184=LINE('',#1009,#261);
#185=LINE('',#1010,#262);
#186=LINE('',#1012,#263);
#187=LINE('',#1014,#264);
#188=LINE('',#1015,#265);
#189=LINE('',#1018,#266);
#190=LINE('',#1020,#267);
#191=LINE('',#1022,#268);
#192=LINE('',#1023,#269);
#193=LINE('',#1026,#270);
#194=LINE('',#1028,#271);
#195=LINE('',#1029,#272);
#196=LINE('',#1031,#273);
#197=LINE('',#1033,#274);
#198=LINE('',#1034,#275);
#199=LINE('',#1037,#276);
#200=LINE('',#1039,#277);
#201=LINE('',#1041,#278);
#202=LINE('',#1042,#279);
#203=LINE('',#1044,#280);
#204=LINE('',#1045,#281);
#205=LINE('',#1047,#282);
#206=LINE('',#1048,#283);
#207=LINE('',#1049,#284);
#208=LINE('',#1051,#285);
#209=LINE('',#1053,#286);
#210=LINE('',#1056,#287);
#211=LINE('',#1059,#288);
#212=LINE('',#1061,#289);
#213=VECTOR('',#725,0.0625);
#214=VECTOR('',#732,0.0625);
#215=VECTOR('',#737,0.393700787401575);
#216=VECTOR('',#738,0.393700787401575);
#217=VECTOR('',#739,0.393700787401575);
#218=VECTOR('',#740,0.393700787401575);
#219=VECTOR('',#743,0.393700787401575);
#220=VECTOR('',#744,0.393700787401575);
#221=VECTOR('',#745,0.393700787401575);
#222=VECTOR('',#748,0.393700787401575);
#223=VECTOR('',#749,0.393700787401575);
#224=VECTOR('',#750,0.393700787401575);
#225=VECTOR('',#753,0.393700787401575);
#226=VECTOR('',#756,0.393700787401575);
#227=VECTOR('',#757,0.393700787401575);
#228=VECTOR('',#758,0.393700787401575);
#229=VECTOR('',#759,0.393700787401575);
#230=VECTOR('',#760,0.393700787401575);
#231=VECTOR('',#761,0.393700787401575);
#232=VECTOR('',#762,0.393700787401575);
#233=VECTOR('',#763,0.393700787401575);
#234=VECTOR('',#770,0.083);
#235=VECTOR('',#775,0.083);
#236=VECTOR('',#780,0.393700787401575);
#237=VECTOR('',#781,0.393700787401575);
#238=VECTOR('',#782,0.393700787401575);
#239=VECTOR('',#785,0.393700787401575);
#240=VECTOR('',#786,0.393700787401575);
#241=VECTOR('',#787,0.393700787401575);
#242=VECTOR('',#788,0.393700787401575);
#243=VECTOR('',#791,0.393700787401575);
#244=VECTOR('',#792,0.393700787401575);
#245=VECTOR('',#795,0.393700787401575);
#246=VECTOR('',#796,0.393700787401575);
#247=VECTOR('',#799,0.393700787401575);
#248=VECTOR('',#802,0.393700787401575);
#249=VECTOR('',#803,0.393700787401575);
#250=VECTOR('',#804,0.393700787401575);
#251=VECTOR('',#805,0.393700787401575);
#252=VECTOR('',#808,0.393700787401575);
#253=VECTOR('',#809,0.393700787401575);
#254=VECTOR('',#810,0.393700787401575);
#255=VECTOR('',#813,0.393700787401575);
#256=VECTOR('',#814,0.393700787401575);
#257=VECTOR('',#815,0.393700787401575);
#258=VECTOR('',#820,0.2);
#259=VECTOR('',#827,0.2);
#260=VECTOR('',#832,0.393700787401575);
#261=VECTOR('',#833,0.393700787401575);
#262=VECTOR('',#834,0.393700787401575);
#263=VECTOR('',#835,0.393700787401575);
#264=VECTOR('',#836,0.393700787401575);
#265=VECTOR('',#837,0.393700787401575);
#266=VECTOR('',#838,0.393700787401575);
#267=VECTOR('',#839,0.393700787401575);
#268=VECTOR('',#840,0.393700787401575);
#269=VECTOR('',#841,0.393700787401575);
#270=VECTOR('',#844,0.393700787401575);
#271=VECTOR('',#845,0.393700787401575);
#272=VECTOR('',#846,0.393700787401575);
#273=VECTOR('',#847,0.393700787401575);
#274=VECTOR('',#848,0.393700787401575);
#275=VECTOR('',#849,0.393700787401575);
#276=VECTOR('',#850,0.393700787401575);
#277=VECTOR('',#851,0.393700787401575);
#278=VECTOR('',#852,0.393700787401575);
#279=VECTOR('',#853,0.393700787401575);
#280=VECTOR('',#856,0.393700787401575);
#281=VECTOR('',#857,0.393700787401575);
#282=VECTOR('',#860,0.393700787401575);
#283=VECTOR('',#861,0.393700787401575);
#284=VECTOR('',#862,0.393700787401575);
#285=VECTOR('',#865,0.393700787401575);
#286=VECTOR('',#868,0.393700787401575);
#287=VECTOR('',#873,0.393700787401575);
#288=VECTOR('',#878,0.393700787401575);
#289=VECTOR('',#881,0.393700787401575);
#290=CIRCLE('',#677,0.0625);
#291=CIRCLE('',#678,0.0625);
#292=CIRCLE('',#680,0.0625);
#293=CIRCLE('',#681,0.0625);
#294=CIRCLE('',#687,0.083);
#295=CIRCLE('',#688,0.083);
#296=CIRCLE('',#690,0.083);
#297=CIRCLE('',#692,0.083);
#298=CIRCLE('',#702,0.2);
#299=CIRCLE('',#706,0.2);
#300=VERTEX_POINT('',#886);
#301=VERTEX_POINT('',#888);
#302=VERTEX_POINT('',#892);
#303=VERTEX_POINT('',#894);
#304=VERTEX_POINT('',#898);
#305=VERTEX_POINT('',#899);
#306=VERTEX_POINT('',#901);
#307=VERTEX_POINT('',#903);
#308=VERTEX_POINT('',#907);
#309=VERTEX_POINT('',#909);
#310=VERTEX_POINT('',#913);
#311=VERTEX_POINT('',#915);
#312=VERTEX_POINT('',#921);
#313=VERTEX_POINT('',#923);
#314=VERTEX_POINT('',#925);
#315=VERTEX_POINT('',#927);
#316=VERTEX_POINT('',#930);
#317=VERTEX_POINT('',#932);
#318=VERTEX_POINT('',#935);
#319=VERTEX_POINT('',#937);
#320=VERTEX_POINT('',#940);
#321=VERTEX_POINT('',#944);
#322=VERTEX_POINT('',#948);
#323=VERTEX_POINT('',#949);
#324=VERTEX_POINT('',#954);
#325=VERTEX_POINT('',#955);
#326=VERTEX_POINT('',#957);
#327=VERTEX_POINT('',#959);
#328=VERTEX_POINT('',#963);
#329=VERTEX_POINT('',#967);
#330=VERTEX_POINT('',#973);
#331=VERTEX_POINT('',#974);
#332=VERTEX_POINT('',#976);
#333=VERTEX_POINT('',#978);
#334=VERTEX_POINT('',#982);
#335=VERTEX_POINT('',#984);
#336=VERTEX_POINT('',#988);
#337=VERTEX_POINT('',#990);
#338=VERTEX_POINT('',#994);
#339=VERTEX_POINT('',#996);
#340=VERTEX_POINT('',#1000);
#341=VERTEX_POINT('',#1002);
#342=VERTEX_POINT('',#1006);
#343=VERTEX_POINT('',#1008);
#344=VERTEX_POINT('',#1011);
#345=VERTEX_POINT('',#1013);
#346=VERTEX_POINT('',#1016);
#347=VERTEX_POINT('',#1017);
#348=VERTEX_POINT('',#1019);
#349=VERTEX_POINT('',#1021);
#350=VERTEX_POINT('',#1025);
#351=VERTEX_POINT('',#1027);
#352=VERTEX_POINT('',#1030);
#353=VERTEX_POINT('',#1032);
#354=VERTEX_POINT('',#1035);
#355=VERTEX_POINT('',#1036);
#356=VERTEX_POINT('',#1038);
#357=VERTEX_POINT('',#1040);
#358=EDGE_CURVE('',#300,#300,#290,.T.);
#359=EDGE_CURVE('',#300,#301,#136,.T.);
#360=EDGE_CURVE('',#301,#301,#291,.T.);
#361=EDGE_CURVE('',#302,#302,#292,.T.);
#362=EDGE_CURVE('',#302,#303,#137,.T.);
#363=EDGE_CURVE('',#303,#303,#293,.T.);
#364=EDGE_CURVE('',#304,#305,#138,.T.);
#365=EDGE_CURVE('',#304,#306,#139,.T.);
#366=EDGE_CURVE('',#307,#306,#140,.T.);
#367=EDGE_CURVE('',#305,#307,#141,.T.);
#368=EDGE_CURVE('',#308,#305,#142,.T.);
#369=EDGE_CURVE('',#309,#307,#143,.T.);
#370=EDGE_CURVE('',#308,#309,#144,.T.);
#371=EDGE_CURVE('',#308,#310,#145,.T.);
#372=EDGE_CURVE('',#311,#309,#146,.T.);
#373=EDGE_CURVE('',#310,#311,#147,.T.);
#374=EDGE_CURVE('',#306,#311,#148,.T.);
#375=EDGE_CURVE('',#310,#312,#149,.T.);
#376=EDGE_CURVE('',#312,#313,#150,.T.);
#377=EDGE_CURVE('',#313,#314,#151,.T.);
#378=EDGE_CURVE('',#314,#315,#152,.T.);
#379=EDGE_CURVE('',#315,#304,#153,.T.);
#380=EDGE_CURVE('',#316,#304,#154,.T.);
#381=EDGE_CURVE('',#316,#317,#155,.T.);
#382=EDGE_CURVE('',#310,#317,#156,.T.);
#383=EDGE_CURVE('',#318,#318,#294,.T.);
#384=EDGE_CURVE('',#319,#319,#295,.T.);
#385=EDGE_CURVE('',#319,#320,#157,.T.);
#386=EDGE_CURVE('',#320,#320,#296,.T.);
#387=EDGE_CURVE('',#318,#321,#158,.T.);
#388=EDGE_CURVE('',#321,#321,#297,.T.);
#389=EDGE_CURVE('',#322,#323,#159,.T.);
#390=EDGE_CURVE('',#322,#312,#160,.T.);
#391=EDGE_CURVE('',#323,#315,#161,.T.);
#392=EDGE_CURVE('',#324,#325,#162,.T.);
#393=EDGE_CURVE('',#326,#324,#163,.T.);
#394=EDGE_CURVE('',#327,#326,#164,.T.);
#395=EDGE_CURVE('',#327,#325,#165,.T.);
#396=EDGE_CURVE('',#323,#328,#166,.T.);
#397=EDGE_CURVE('',#328,#314,#167,.T.);
#398=EDGE_CURVE('',#329,#322,#168,.T.);
#399=EDGE_CURVE('',#329,#313,#169,.T.);
#400=EDGE_CURVE('',#328,#329,#170,.T.);
#401=EDGE_CURVE('',#330,#331,#171,.T.);
#402=EDGE_CURVE('',#332,#330,#172,.T.);
#403=EDGE_CURVE('',#333,#332,#173,.T.);
#404=EDGE_CURVE('',#333,#331,#174,.T.);
#405=EDGE_CURVE('',#334,#332,#175,.T.);
#406=EDGE_CURVE('',#334,#335,#176,.T.);
#407=EDGE_CURVE('',#335,#333,#177,.T.);
#408=EDGE_CURVE('',#326,#336,#178,.T.);
#409=EDGE_CURVE('',#336,#337,#179,.T.);
#410=EDGE_CURVE('',#327,#337,#180,.T.);
#411=EDGE_CURVE('',#338,#338,#298,.T.);
#412=EDGE_CURVE('',#338,#339,#181,.T.);
#413=EDGE_CURVE('',#339,#339,#15,.T.);
#414=EDGE_CURVE('',#340,#340,#16,.T.);
#415=EDGE_CURVE('',#340,#341,#182,.T.);
#416=EDGE_CURVE('',#341,#341,#299,.T.);
#417=EDGE_CURVE('',#342,#336,#183,.T.);
#418=EDGE_CURVE('',#343,#342,#184,.T.);
#419=EDGE_CURVE('',#305,#343,#185,.T.);
#420=EDGE_CURVE('',#344,#308,#186,.T.);
#421=EDGE_CURVE('',#345,#344,#187,.T.);
#422=EDGE_CURVE('',#337,#345,#188,.T.);
#423=EDGE_CURVE('',#346,#347,#189,.T.);
#424=EDGE_CURVE('',#348,#346,#190,.T.);
#425=EDGE_CURVE('',#349,#348,#191,.T.);
#426=EDGE_CURVE('',#347,#349,#192,.T.);
#427=EDGE_CURVE('',#350,#334,#193,.T.);
#428=EDGE_CURVE('',#351,#350,#194,.T.);
#429=EDGE_CURVE('',#317,#351,#195,.T.);
#430=EDGE_CURVE('',#352,#316,#196,.T.);
#431=EDGE_CURVE('',#353,#352,#197,.T.);
#432=EDGE_CURVE('',#335,#353,#198,.T.);
#433=EDGE_CURVE('',#354,#355,#199,.T.);
#434=EDGE_CURVE('',#356,#354,#200,.T.);
#435=EDGE_CURVE('',#357,#356,#201,.T.);
#436=EDGE_CURVE('',#355,#357,#202,.T.);
#437=EDGE_CURVE('',#346,#355,#203,.T.);
#438=EDGE_CURVE('',#357,#348,#204,.T.);
#439=EDGE_CURVE('',#356,#349,#205,.T.);
#440=EDGE_CURVE('',#331,#324,#206,.T.);
#441=EDGE_CURVE('',#325,#330,#207,.T.);
#442=EDGE_CURVE('',#350,#345,#208,.T.);
#443=EDGE_CURVE('',#351,#344,#209,.T.);
#444=EDGE_CURVE('',#354,#347,#210,.T.);
#445=EDGE_CURVE('',#352,#343,#211,.T.);
#446=EDGE_CURVE('',#353,#342,#212,.T.);
#447=ORIENTED_EDGE('',*,*,#358,.F.);
#448=ORIENTED_EDGE('',*,*,#359,.T.);
#449=ORIENTED_EDGE('',*,*,#360,.F.);
#450=ORIENTED_EDGE('',*,*,#359,.F.);
#451=ORIENTED_EDGE('',*,*,#361,.F.);
#452=ORIENTED_EDGE('',*,*,#362,.T.);
#453=ORIENTED_EDGE('',*,*,#363,.F.);
#454=ORIENTED_EDGE('',*,*,#362,.F.);
#455=ORIENTED_EDGE('',*,*,#364,.F.);
#456=ORIENTED_EDGE('',*,*,#365,.T.);
#457=ORIENTED_EDGE('',*,*,#366,.F.);
#458=ORIENTED_EDGE('',*,*,#367,.F.);
#459=ORIENTED_EDGE('',*,*,#368,.T.);
#460=ORIENTED_EDGE('',*,*,#367,.T.);
#461=ORIENTED_EDGE('',*,*,#369,.F.);
#462=ORIENTED_EDGE('',*,*,#370,.F.);
#463=ORIENTED_EDGE('',*,*,#371,.F.);
#464=ORIENTED_EDGE('',*,*,#370,.T.);
#465=ORIENTED_EDGE('',*,*,#372,.F.);
#466=ORIENTED_EDGE('',*,*,#373,.F.);
#467=ORIENTED_EDGE('',*,*,#374,.T.);
#468=ORIENTED_EDGE('',*,*,#372,.T.);
#469=ORIENTED_EDGE('',*,*,#369,.T.);
#470=ORIENTED_EDGE('',*,*,#366,.T.);
#471=ORIENTED_EDGE('',*,*,#358,.T.);
#472=ORIENTED_EDGE('',*,*,#361,.T.);
#473=ORIENTED_EDGE('',*,*,#375,.T.);
#474=ORIENTED_EDGE('',*,*,#376,.T.);
#475=ORIENTED_EDGE('',*,*,#377,.T.);
#476=ORIENTED_EDGE('',*,*,#378,.T.);
#477=ORIENTED_EDGE('',*,*,#379,.T.);
#478=ORIENTED_EDGE('',*,*,#380,.F.);
#479=ORIENTED_EDGE('',*,*,#381,.T.);
#480=ORIENTED_EDGE('',*,*,#382,.F.);
#481=ORIENTED_EDGE('',*,*,#383,.T.);
#482=ORIENTED_EDGE('',*,*,#384,.T.);
#483=ORIENTED_EDGE('',*,*,#384,.F.);
#484=ORIENTED_EDGE('',*,*,#385,.T.);
#485=ORIENTED_EDGE('',*,*,#386,.F.);
#486=ORIENTED_EDGE('',*,*,#385,.F.);
#487=ORIENTED_EDGE('',*,*,#383,.F.);
#488=ORIENTED_EDGE('',*,*,#387,.T.);
#489=ORIENTED_EDGE('',*,*,#388,.F.);
#490=ORIENTED_EDGE('',*,*,#387,.F.);
#491=ORIENTED_EDGE('',*,*,#389,.F.);
#492=ORIENTED_EDGE('',*,*,#390,.T.);
#493=ORIENTED_EDGE('',*,*,#375,.F.);
#494=ORIENTED_EDGE('',*,*,#373,.T.);
#495=ORIENTED_EDGE('',*,*,#374,.F.);
#496=ORIENTED_EDGE('',*,*,#365,.F.);
#497=ORIENTED_EDGE('',*,*,#379,.F.);
#498=ORIENTED_EDGE('',*,*,#391,.F.);
#499=ORIENTED_EDGE('',*,*,#392,.F.);
#500=ORIENTED_EDGE('',*,*,#393,.F.);
#501=ORIENTED_EDGE('',*,*,#394,.F.);
#502=ORIENTED_EDGE('',*,*,#395,.T.);
#503=ORIENTED_EDGE('',*,*,#396,.F.);
#504=ORIENTED_EDGE('',*,*,#391,.T.);
#505=ORIENTED_EDGE('',*,*,#378,.F.);
#506=ORIENTED_EDGE('',*,*,#397,.F.);
#507=ORIENTED_EDGE('',*,*,#398,.F.);
#508=ORIENTED_EDGE('',*,*,#399,.T.);
#509=ORIENTED_EDGE('',*,*,#376,.F.);
#510=ORIENTED_EDGE('',*,*,#390,.F.);
#511=ORIENTED_EDGE('',*,*,#400,.F.);
#512=ORIENTED_EDGE('',*,*,#397,.T.);
#513=ORIENTED_EDGE('',*,*,#377,.F.);
#514=ORIENTED_EDGE('',*,*,#399,.F.);
#515=ORIENTED_EDGE('',*,*,#401,.F.);
#516=ORIENTED_EDGE('',*,*,#402,.F.);
#517=ORIENTED_EDGE('',*,*,#403,.F.);
#518=ORIENTED_EDGE('',*,*,#404,.T.);
#519=ORIENTED_EDGE('',*,*,#403,.T.);
#520=ORIENTED_EDGE('',*,*,#405,.F.);
#521=ORIENTED_EDGE('',*,*,#406,.T.);
#522=ORIENTED_EDGE('',*,*,#407,.T.);
#523=ORIENTED_EDGE('',*,*,#394,.T.);
#524=ORIENTED_EDGE('',*,*,#408,.T.);
#525=ORIENTED_EDGE('',*,*,#409,.T.);
#526=ORIENTED_EDGE('',*,*,#410,.F.);
#527=ORIENTED_EDGE('',*,*,#411,.F.);
#528=ORIENTED_EDGE('',*,*,#412,.T.);
#529=ORIENTED_EDGE('',*,*,#413,.F.);
#530=ORIENTED_EDGE('',*,*,#412,.F.);
#531=ORIENTED_EDGE('',*,*,#414,.F.);
#532=ORIENTED_EDGE('',*,*,#415,.T.);
#533=ORIENTED_EDGE('',*,*,#416,.F.);
#534=ORIENTED_EDGE('',*,*,#415,.F.);
#535=ORIENTED_EDGE('',*,*,#417,.F.);
#536=ORIENTED_EDGE('',*,*,#418,.F.);
#537=ORIENTED_EDGE('',*,*,#419,.F.);
#538=ORIENTED_EDGE('',*,*,#368,.F.);
#539=ORIENTED_EDGE('',*,*,#420,.F.);
#540=ORIENTED_EDGE('',*,*,#421,.F.);
#541=ORIENTED_EDGE('',*,*,#422,.F.);
#542=ORIENTED_EDGE('',*,*,#409,.F.);
#543=ORIENTED_EDGE('',*,*,#423,.F.);
#544=ORIENTED_EDGE('',*,*,#424,.F.);
#545=ORIENTED_EDGE('',*,*,#425,.F.);
#546=ORIENTED_EDGE('',*,*,#426,.F.);
#547=ORIENTED_EDGE('',*,*,#427,.F.);
#548=ORIENTED_EDGE('',*,*,#428,.F.);
#549=ORIENTED_EDGE('',*,*,#429,.F.);
#550=ORIENTED_EDGE('',*,*,#381,.F.);
#551=ORIENTED_EDGE('',*,*,#430,.F.);
#552=ORIENTED_EDGE('',*,*,#431,.F.);
#553=ORIENTED_EDGE('',*,*,#432,.F.);
#554=ORIENTED_EDGE('',*,*,#406,.F.);
#555=ORIENTED_EDGE('',*,*,#433,.F.);
#556=ORIENTED_EDGE('',*,*,#434,.F.);
#557=ORIENTED_EDGE('',*,*,#435,.F.);
#558=ORIENTED_EDGE('',*,*,#436,.F.);
#559=ORIENTED_EDGE('',*,*,#424,.T.);
#560=ORIENTED_EDGE('',*,*,#437,.T.);
#561=ORIENTED_EDGE('',*,*,#436,.T.);
#562=ORIENTED_EDGE('',*,*,#438,.T.);
#563=ORIENTED_EDGE('',*,*,#425,.T.);
#564=ORIENTED_EDGE('',*,*,#438,.F.);
#565=ORIENTED_EDGE('',*,*,#435,.T.);
#566=ORIENTED_EDGE('',*,*,#439,.T.);
#567=ORIENTED_EDGE('',*,*,#401,.T.);
#568=ORIENTED_EDGE('',*,*,#440,.T.);
#569=ORIENTED_EDGE('',*,*,#392,.T.);
#570=ORIENTED_EDGE('',*,*,#441,.T.);
#571=ORIENTED_EDGE('',*,*,#422,.T.);
#572=ORIENTED_EDGE('',*,*,#442,.F.);
#573=ORIENTED_EDGE('',*,*,#427,.T.);
#574=ORIENTED_EDGE('',*,*,#405,.T.);
#575=ORIENTED_EDGE('',*,*,#402,.T.);
#576=ORIENTED_EDGE('',*,*,#441,.F.);
#577=ORIENTED_EDGE('',*,*,#395,.F.);
#578=ORIENTED_EDGE('',*,*,#410,.T.);
#579=ORIENTED_EDGE('',*,*,#416,.T.);
#580=ORIENTED_EDGE('',*,*,#421,.T.);
#581=ORIENTED_EDGE('',*,*,#443,.F.);
#582=ORIENTED_EDGE('',*,*,#428,.T.);
#583=ORIENTED_EDGE('',*,*,#442,.T.);
#584=ORIENTED_EDGE('',*,*,#420,.T.);
#585=ORIENTED_EDGE('',*,*,#371,.T.);
#586=ORIENTED_EDGE('',*,*,#382,.T.);
#587=ORIENTED_EDGE('',*,*,#429,.T.);
#588=ORIENTED_EDGE('',*,*,#443,.T.);
#589=ORIENTED_EDGE('',*,*,#414,.T.);
#590=ORIENTED_EDGE('',*,*,#423,.T.);
#591=ORIENTED_EDGE('',*,*,#444,.F.);
#592=ORIENTED_EDGE('',*,*,#433,.T.);
#593=ORIENTED_EDGE('',*,*,#437,.F.);
#594=ORIENTED_EDGE('',*,*,#360,.T.);
#595=ORIENTED_EDGE('',*,*,#363,.T.);
#596=ORIENTED_EDGE('',*,*,#386,.T.);
#597=ORIENTED_EDGE('',*,*,#388,.T.);
#598=ORIENTED_EDGE('',*,*,#400,.T.);
#599=ORIENTED_EDGE('',*,*,#398,.T.);
#600=ORIENTED_EDGE('',*,*,#389,.T.);
#601=ORIENTED_EDGE('',*,*,#396,.T.);
#602=ORIENTED_EDGE('',*,*,#426,.T.);
#603=ORIENTED_EDGE('',*,*,#439,.F.);
#604=ORIENTED_EDGE('',*,*,#434,.T.);
#605=ORIENTED_EDGE('',*,*,#444,.T.);
#606=ORIENTED_EDGE('',*,*,#419,.T.);
#607=ORIENTED_EDGE('',*,*,#445,.F.);
#608=ORIENTED_EDGE('',*,*,#430,.T.);
#609=ORIENTED_EDGE('',*,*,#380,.T.);
#610=ORIENTED_EDGE('',*,*,#364,.T.);
#611=ORIENTED_EDGE('',*,*,#413,.T.);
#612=ORIENTED_EDGE('',*,*,#418,.T.);
#613=ORIENTED_EDGE('',*,*,#446,.F.);
#614=ORIENTED_EDGE('',*,*,#431,.T.);
#615=ORIENTED_EDGE('',*,*,#445,.T.);
#616=ORIENTED_EDGE('',*,*,#417,.T.);
#617=ORIENTED_EDGE('',*,*,#408,.F.);
#618=ORIENTED_EDGE('',*,*,#393,.T.);
#619=ORIENTED_EDGE('',*,*,#440,.F.);
#620=ORIENTED_EDGE('',*,*,#404,.F.);
#621=ORIENTED_EDGE('',*,*,#407,.F.);
#622=ORIENTED_EDGE('',*,*,#432,.T.);
#623=ORIENTED_EDGE('',*,*,#446,.T.);
#624=ORIENTED_EDGE('',*,*,#411,.T.);
#625=CYLINDRICAL_SURFACE('',#676,0.0625);
#626=CYLINDRICAL_SURFACE('',#679,0.0625);
#627=CYLINDRICAL_SURFACE('',#689,0.083);
#628=CYLINDRICAL_SURFACE('',#691,0.083);
#629=CYLINDRICAL_SURFACE('',#701,0.2);
#630=CYLINDRICAL_SURFACE('',#704,0.2);
#631=ADVANCED_FACE('',(#58),#625,.F.);
#632=ADVANCED_FACE('',(#59),#626,.F.);
#633=ADVANCED_FACE('',(#60),#33,.T.);
#634=ADVANCED_FACE('',(#61),#34,.T.);
#635=ADVANCED_FACE('',(#62),#35,.T.);
#636=ADVANCED_FACE('',(#63,#17,#18),#36,.T.);
#637=ADVANCED_FACE('',(#64,#19,#20),#37,.T.);
#638=ADVANCED_FACE('',(#65),#627,.F.);
#639=ADVANCED_FACE('',(#66),#628,.F.);
#640=ADVANCED_FACE('',(#67),#38,.F.);
#641=ADVANCED_FACE('',(#68),#39,.F.);
#642=ADVANCED_FACE('',(#69),#40,.F.);
#643=ADVANCED_FACE('',(#70),#41,.F.);
#644=ADVANCED_FACE('',(#71),#42,.F.);
#645=ADVANCED_FACE('',(#72),#43,.F.);
#646=ADVANCED_FACE('',(#73),#44,.T.);
#647=ADVANCED_FACE('',(#74),#45,.T.);
#648=ADVANCED_FACE('',(#75),#629,.F.);
#649=ADVANCED_FACE('',(#76),#630,.F.);
#650=ADVANCED_FACE('',(#77,#21),#46,.F.);
#651=ADVANCED_FACE('',(#78,#22),#47,.F.);
#652=ADVANCED_FACE('',(#79),#48,.T.);
#653=ADVANCED_FACE('',(#80,#23),#49,.T.);
#654=ADVANCED_FACE('',(#81,#24),#50,.T.);
#655=ADVANCED_FACE('',(#82),#51,.T.);
#656=ADVANCED_FACE('',(#83,#25),#52,.T.);
#657=ADVANCED_FACE('',(#84,#26,#27,#28,#29,#30),#53,.T.);
#658=ADVANCED_FACE('',(#85),#54,.T.);
#659=ADVANCED_FACE('',(#86,#31),#55,.T.);
#660=ADVANCED_FACE('',(#87),#56,.T.);
#661=ADVANCED_FACE('',(#88,#32),#57,.T.);
#662=CLOSED_SHELL('',(#631,#632,#633,#634,#635,#636,#637,#638,#639,#640,
#641,#642,#643,#644,#645,#646,#647,#648,#649,#650,#651,#652,#653,#654,#655,
#656,#657,#658,#659,#660,#661));
#663=DERIVED_UNIT_ELEMENT(#665,1.);
#664=DERIVED_UNIT_ELEMENT(#1070,-3.);
#665=(
MASS_UNIT()
NAMED_UNIT(*)
SI_UNIT(.KILO.,.GRAM.)
);
#666=DERIVED_UNIT((#663,#664));
#667=MEASURE_REPRESENTATION_ITEM('density measure',
POSITIVE_RATIO_MEASURE(7850.),#666);
#668=PROPERTY_DEFINITION_REPRESENTATION(#673,#670);
#669=PROPERTY_DEFINITION_REPRESENTATION(#674,#671);
#670=REPRESENTATION('material name',(#672),#1065);
#671=REPRESENTATION('density',(#667),#1065);
#672=DESCRIPTIVE_REPRESENTATION_ITEM('Acier','Acier');
#673=PROPERTY_DEFINITION('material property','material name',#1078);
#674=PROPERTY_DEFINITION('material property','density of part',#1078);
#675=AXIS2_PLACEMENT_3D('',#884,#719,#720);
#676=AXIS2_PLACEMENT_3D('',#885,#721,#722);
#677=AXIS2_PLACEMENT_3D('',#887,#723,#724);
#678=AXIS2_PLACEMENT_3D('',#890,#726,#727);
#679=AXIS2_PLACEMENT_3D('',#891,#728,#729);
#680=AXIS2_PLACEMENT_3D('',#893,#730,#731);
#681=AXIS2_PLACEMENT_3D('',#896,#733,#734);
#682=AXIS2_PLACEMENT_3D('',#897,#735,#736);
#683=AXIS2_PLACEMENT_3D('',#906,#741,#742);
#684=AXIS2_PLACEMENT_3D('',#912,#746,#747);
#685=AXIS2_PLACEMENT_3D('',#918,#751,#752);
#686=AXIS2_PLACEMENT_3D('',#920,#754,#755);
#687=AXIS2_PLACEMENT_3D('',#936,#764,#765);
#688=AXIS2_PLACEMENT_3D('',#938,#766,#767);
#689=AXIS2_PLACEMENT_3D('',#939,#768,#769);
#690=AXIS2_PLACEMENT_3D('',#942,#771,#772);
#691=AXIS2_PLACEMENT_3D('',#943,#773,#774);
#692=AXIS2_PLACEMENT_3D('',#946,#776,#777);
#693=AXIS2_PLACEMENT_3D('',#947,#778,#779);
#694=AXIS2_PLACEMENT_3D('',#953,#783,#784);
#695=AXIS2_PLACEMENT_3D('',#962,#789,#790);
#696=AXIS2_PLACEMENT_3D('',#966,#793,#794);
#697=AXIS2_PLACEMENT_3D('',#970,#797,#798);
#698=AXIS2_PLACEMENT_3D('',#972,#800,#801);
#699=AXIS2_PLACEMENT_3D('',#981,#806,#807);
#700=AXIS2_PLACEMENT_3D('',#987,#811,#812);
#701=AXIS2_PLACEMENT_3D('',#993,#816,#817);
#702=AXIS2_PLACEMENT_3D('',#995,#818,#819);
#703=AXIS2_PLACEMENT_3D('',#998,#821,#822);
#704=AXIS2_PLACEMENT_3D('',#999,#823,#824);
#705=AXIS2_PLACEMENT_3D('',#1001,#825,#826);
#706=AXIS2_PLACEMENT_3D('',#1004,#828,#829);
#707=AXIS2_PLACEMENT_3D('',#1005,#830,#831);
#708=AXIS2_PLACEMENT_3D('',#1024,#842,#843);
#709=AXIS2_PLACEMENT_3D('',#1043,#854,#855);
#710=AXIS2_PLACEMENT_3D('',#1046,#858,#859);
#711=AXIS2_PLACEMENT_3D('',#1050,#863,#864);
#712=AXIS2_PLACEMENT_3D('',#1052,#866,#867);
#713=AXIS2_PLACEMENT_3D('',#1054,#869,#870);
#714=AXIS2_PLACEMENT_3D('',#1055,#871,#872);
#715=AXIS2_PLACEMENT_3D('',#1057,#874,#875);
#716=AXIS2_PLACEMENT_3D('',#1058,#876,#877);
#717=AXIS2_PLACEMENT_3D('',#1060,#879,#880);
#718=AXIS2_PLACEMENT_3D('',#1062,#882,#883);
#719=DIRECTION('axis',(0.,0.,1.));
#720=DIRECTION('refdir',(1.,0.,0.));
#721=DIRECTION('center_axis',(0.,0.,1.));
#722=DIRECTION('ref_axis',(1.,0.,0.));
#723=DIRECTION('center_axis',(0.,0.,1.));
#724=DIRECTION('ref_axis',(1.,0.,0.));
#725=DIRECTION('',(0.,0.,1.));
#726=DIRECTION('center_axis',(1.09631633988384E-15,0.,-1.));
#727=DIRECTION('ref_axis',(1.,0.,0.));
#728=DIRECTION('center_axis',(0.,0.,1.));
#729=DIRECTION('ref_axis',(1.,0.,0.));
#730=DIRECTION('center_axis',(0.,0.,1.));
#731=DIRECTION('ref_axis',(1.,0.,0.));
#732=DIRECTION('',(0.,0.,1.));
#733=DIRECTION('center_axis',(1.09631633988384E-15,0.,-1.));
#734=DIRECTION('ref_axis',(1.,0.,0.));
#735=DIRECTION('center_axis',(1.,0.,0.));
#736=DIRECTION('ref_axis',(0.,-1.,0.));
#737=DIRECTION('',(0.,1.,0.));
#738=DIRECTION('',(0.,0.,-1.));
#739=DIRECTION('',(0.,-1.,0.));
#740=DIRECTION('',(0.,0.,-1.));
#741=DIRECTION('center_axis',(0.,1.,0.));
#742=DIRECTION('ref_axis',(1.,0.,0.));
#743=DIRECTION('',(1.,-3.13368461732047E-17,4.97987252615328E-17));
#744=DIRECTION('',(1.,0.,0.));
#745=DIRECTION('',(0.,0.,-1.));
#746=DIRECTION('center_axis',(-1.,0.,0.));
#747=DIRECTION('ref_axis',(0.,1.,0.));
#748=DIRECTION('',(0.,-1.,0.));
#749=DIRECTION('',(0.,1.,0.));
#750=DIRECTION('',(0.,0.,-1.));
#751=DIRECTION('center_axis',(0.,0.,-1.));
#752=DIRECTION('ref_axis',(-1.,0.,0.));
#753=DIRECTION('',(-1.,0.,0.));
#754=DIRECTION('center_axis',(4.97987252615328E-17,0.,-1.));
#755=DIRECTION('ref_axis',(-1.,0.,-4.97987252615328E-17));
#756=DIRECTION('',(1.,0.,4.97987252615328E-17));
#757=DIRECTION('',(0.,-1.,0.));
#758=DIRECTION('',(1.,0.,4.97987252615328E-17));
#759=DIRECTION('',(0.,1.,0.));
#760=DIRECTION('',(1.,0.,4.97987252615328E-17));
#761=DIRECTION('',(0.,1.,0.));
#762=DIRECTION('',(-1.,-3.13368461732047E-17,-4.97987252615328E-17));
#763=DIRECTION('',(0.,-1.,0.));
#764=DIRECTION('center_axis',(-4.97987252615328E-17,0.,1.));
#765=DIRECTION('ref_axis',(1.,0.,0.));
#766=DIRECTION('center_axis',(-4.97987252615328E-17,0.,1.));
#767=DIRECTION('ref_axis',(1.,0.,0.));
#768=DIRECTION('center_axis',(0.,0.,1.));
#769=DIRECTION('ref_axis',(1.,0.,0.));
#770=DIRECTION('',(0.,0.,1.));
#771=DIRECTION('center_axis',(1.09631633988384E-15,0.,-1.));
#772=DIRECTION('ref_axis',(1.,0.,0.));
#773=DIRECTION('center_axis',(0.,0.,1.));
#774=DIRECTION('ref_axis',(1.,0.,0.));
#775=DIRECTION('',(0.,0.,1.));
#776=DIRECTION('center_axis',(1.09631633988384E-15,0.,-1.));
#777=DIRECTION('ref_axis',(1.,0.,0.));
#778=DIRECTION('center_axis',(0.,1.,0.));
#779=DIRECTION('ref_axis',(1.,0.,-8.38265685727141E-15));
#780=DIRECTION('',(1.,0.,1.09631633988384E-15));
#781=DIRECTION('',(-8.38677334054929E-15,0.,-1.));
#782=DIRECTION('',(-8.38677334054929E-15,0.,-1.));
#783=DIRECTION('center_axis',(0.,1.,0.));
#784=DIRECTION('ref_axis',(1.,0.,-8.38265685727141E-15));
#785=DIRECTION('',(-1.,0.,2.51069379274216E-13));
#786=DIRECTION('',(-8.38677334054929E-15,0.,-1.));
#787=DIRECTION('',(1.,0.,-8.68761597985732E-15));
#788=DIRECTION('',(-8.38677334054929E-15,0.,-1.));
#789=DIRECTION('center_axis',(1.,0.,-8.38677334054929E-15));
#790=DIRECTION('ref_axis',(0.,-1.,0.));
#791=DIRECTION('',(0.,-1.,0.));
#792=DIRECTION('',(-8.38677334054929E-15,0.,-1.));
#793=DIRECTION('center_axis',(-1.,0.,8.38677334054929E-15));
#794=DIRECTION('ref_axis',(0.,1.,0.));
#795=DIRECTION('',(0.,1.,0.));
#796=DIRECTION('',(-8.38677334054929E-15,0.,-1.));
#797=DIRECTION('center_axis',(0.,-1.,0.));
#798=DIRECTION('ref_axis',(-1.,0.,8.38265685727141E-15));
#799=DIRECTION('',(-1.,0.,-1.09631633988384E-15));
#800=DIRECTION('center_axis',(0.,-1.,0.));
#801=DIRECTION('ref_axis',(-1.,0.,8.38265685727141E-15));
#802=DIRECTION('',(1.,0.,-2.51069379274216E-13));
#803=DIRECTION('',(-8.38677334054929E-15,0.,-1.));
#804=DIRECTION('',(-1.,0.,8.68761597985732E-15));
#805=DIRECTION('',(-8.38677334054929E-15,0.,-1.));
#806=DIRECTION('center_axis',(8.68761597985732E-15,0.,1.));
#807=DIRECTION('ref_axis',(1.,0.,-8.68761597985732E-15));
#808=DIRECTION('',(0.,1.,0.));
#809=DIRECTION('',(1.,-5.46685651375416E-15,-8.68761597985732E-15));
#810=DIRECTION('',(0.,1.,0.));
#811=DIRECTION('center_axis',(8.68761597985732E-15,0.,1.));
#812=DIRECTION('ref_axis',(1.,0.,-8.68761597985732E-15));
#813=DIRECTION('',(0.,1.,0.));
#814=DIRECTION('',(-1.,-5.46685651375416E-15,8.68761597985732E-15));
#815=DIRECTION('',(0.,1.,0.));
#816=DIRECTION('center_axis',(1.,0.,1.74838271594513E-16));
#817=DIRECTION('ref_axis',(0.,1.,0.));
#818=DIRECTION('center_axis',(1.,0.,-1.77995073720486E-13));
#819=DIRECTION('ref_axis',(0.,1.,0.));
#820=DIRECTION('',(1.,0.,1.74838271594513E-16));
#821=DIRECTION('center_axis',(-0.922824701776078,0.,-0.385220157561741));
#822=DIRECTION('ref_axis',(-0.385220157561741,0.,0.922824701776078));
#823=DIRECTION('center_axis',(1.,0.,1.74838271594513E-16));
#824=DIRECTION('ref_axis',(0.,1.,0.));
#825=DIRECTION('center_axis',(0.922824701775619,0.,-0.385220157562841));
#826=DIRECTION('ref_axis',(0.385220157562841,0.,0.922824701775619));
#827=DIRECTION('',(1.,0.,1.74838271594513E-16));
#828=DIRECTION('center_axis',(-1.,0.,-3.54620972752018E-16));
#829=DIRECTION('ref_axis',(0.,1.,0.));
#830=DIRECTION('center_axis',(0.,-0.84637003416818,-0.532595310965234));
#831=DIRECTION('ref_axis',(0.,0.532595310965234,-0.84637003416818));
#832=DIRECTION('',(-1.50649696626575E-13,0.532595310965234,-0.84637003416818));
#833=DIRECTION('',(-1.,-3.1783696342465E-14,5.05088340162258E-14));
#834=DIRECTION('',(-0.333125341408743,-0.50217482599892,0.798027537773141));
#835=DIRECTION('',(-0.333125341409736,0.502174825998734,-0.798027537772844));
#836=DIRECTION('',(-1.,6.82943669586049E-14,-1.0852950543536E-13));
#837=DIRECTION('',(-3.00140564824878E-16,-0.532595310965234,0.84637003416818));
#838=DIRECTION('',(-1.,6.89879034446863E-16,-1.09631633988384E-15));
#839=DIRECTION('',(0.333125341407623,0.502174825999131,-0.798027537773476));
#840=DIRECTION('',(1.,1.57990440032318E-13,-2.51069379274216E-13));
#841=DIRECTION('',(0.333125341408828,-0.502174825998904,0.798027537773116));
#842=DIRECTION('center_axis',(0.,0.84637003416818,-0.532595310965234));
#843=DIRECTION('ref_axis',(0.,0.532595310965234,0.84637003416818));
#844=DIRECTION('',(3.00140564824878E-16,-0.532595310965234,-0.84637003416818));
#845=DIRECTION('',(1.,6.82943669586049E-14,1.0852950543536E-13));
#846=DIRECTION('',(0.333125341409736,0.502174825998734,0.798027537772844));
#847=DIRECTION('',(0.333125341408743,-0.50217482599892,-0.798027537773141));
#848=DIRECTION('',(1.,-3.1783696342465E-14,-5.05088340162258E-14));
#849=DIRECTION('',(1.50649696626575E-13,0.532595310965234,0.84637003416818));
#850=DIRECTION('',(1.,6.89879034446863E-16,1.09631633988384E-15));
#851=DIRECTION('',(-0.333125341408828,-0.502174825998904,-0.798027537773116));
#852=DIRECTION('',(-1.,1.57990440032318E-13,2.51069379274216E-13));
#853=DIRECTION('',(-0.333125341407623,0.502174825999131,0.798027537773476));
#854=DIRECTION('center_axis',(-0.922824701776596,0.,-0.3852201575605));
#855=DIRECTION('ref_axis',(-0.3852201575605,0.,0.922824701776596));
#856=DIRECTION('',(0.,-1.,0.));
#857=DIRECTION('',(0.,1.,0.));
#858=DIRECTION('center_axis',(-2.51069379274216E-13,0.,-1.));
#859=DIRECTION('ref_axis',(-1.,0.,2.51069379274216E-13));
#860=DIRECTION('',(0.,1.,0.));
#861=DIRECTION('',(0.,1.,0.));
#862=DIRECTION('',(0.,-1.,0.));
#863=DIRECTION('center_axis',(1.,0.,3.54620972752018E-16));
#864=DIRECTION('ref_axis',(3.54620972752018E-16,0.,-1.));
#865=DIRECTION('',(0.,1.,0.));
#866=DIRECTION('center_axis',(-1.0852950543536E-13,0.,1.));
#867=DIRECTION('ref_axis',(1.,0.,1.0852950543536E-13));
#868=DIRECTION('',(0.,1.,0.));
#869=DIRECTION('center_axis',(-0.922824701775619,0.,0.385220157562841));
#870=DIRECTION('ref_axis',(0.385220157562841,0.,0.922824701775619));
#871=DIRECTION('center_axis',(-1.09631633988384E-15,0.,1.));
#872=DIRECTION('ref_axis',(1.,0.,1.09631633988384E-15));
#873=DIRECTION('',(0.,1.,0.));
#874=DIRECTION('center_axis',(0.922824701776039,0.,-0.385220157561835));
#875=DIRECTION('ref_axis',(-0.385220157561835,0.,-0.922824701776039));
#876=DIRECTION('center_axis',(0.922824701776078,0.,0.385220157561741));
#877=DIRECTION('ref_axis',(0.385220157561741,0.,-0.922824701776078));
#878=DIRECTION('',(0.,1.,0.));
#879=DIRECTION('center_axis',(5.05088340162258E-14,0.,1.));
#880=DIRECTION('ref_axis',(1.,0.,-5.05088340162258E-14));
#881=DIRECTION('',(0.,1.,0.));
#882=DIRECTION('center_axis',(-1.,0.,1.77995073720486E-13));
#883=DIRECTION('ref_axis',(1.77995073720486E-13,0.,1.));
#884=CARTESIAN_POINT('',(0.,0.,0.));
#885=CARTESIAN_POINT('Origin',(0.75649999999976,1.75826015821663,-0.730000000000257));
#886=CARTESIAN_POINT('',(0.69399999999976,1.75826015821663,-0.730000000000257));
#887=CARTESIAN_POINT('Origin',(0.75649999999976,1.75826015821663,-0.730000000000257));
#888=CARTESIAN_POINT('',(0.69399999999976,1.75826015821663,-0.195000000000257));
#889=CARTESIAN_POINT('',(0.69399999999976,1.75826015821663,-0.730000000000257));
#890=CARTESIAN_POINT('Origin',(0.75649999999976,1.75826015821663,-0.195000000000257));
#891=CARTESIAN_POINT('Origin',(-0.756500000000102,1.75826015821648,-0.730000000000257));
#892=CARTESIAN_POINT('',(-0.819000000000102,1.75826015821648,-0.730000000000257));
#893=CARTESIAN_POINT('Origin',(-0.756500000000102,1.75826015821648,-0.730000000000257));
#894=CARTESIAN_POINT('',(-0.819000000000102,1.75826015821648,-0.195000000000257));
#895=CARTESIAN_POINT('',(-0.819000000000102,1.75826015821648,-0.730000000000257));
#896=CARTESIAN_POINT('Origin',(-0.756500000000102,1.75826015821648,-0.195000000000257));
#897=CARTESIAN_POINT('Origin',(1.75544926779023,2.46926015821663,-0.395000000000257));
#898=CARTESIAN_POINT('',(1.75544926779023,1.01243419633232,-0.395000000000257));
#899=CARTESIAN_POINT('',(1.75544926779023,2.46926015821663,-0.395000000000257));
#900=CARTESIAN_POINT('',(1.75544926779023,0.,-0.395000000000257));
#901=CARTESIAN_POINT('',(1.75544926779023,1.01243419633232,-0.730000000000257));
#902=CARTESIAN_POINT('',(1.75544926779023,1.01243419633232,-0.395000000000257));
#903=CARTESIAN_POINT('',(1.75544926779023,2.46926015821663,-0.730000000000257));
#904=CARTESIAN_POINT('',(1.75544926779023,2.46926015821663,-0.730000000000257));
#905=CARTESIAN_POINT('',(1.75544926779023,2.46926015821663,-0.395000000000257));
#906=CARTESIAN_POINT('Origin',(-1.75544926779071,2.46926015821663,-0.395000000000257));
#907=CARTESIAN_POINT('',(-1.75544926779071,2.46926015821663,-0.395000000000257));
#908=CARTESIAN_POINT('',(0.877724633895115,2.46926015821663,-0.395000000000257));
#909=CARTESIAN_POINT('',(-1.75544926779071,2.46926015821663,-0.730000000000257));
#910=CARTESIAN_POINT('',(-1.75544926779071,2.46926015821663,-0.730000000000257));
#911=CARTESIAN_POINT('',(-1.75544926779071,2.46926015821663,-0.395000000000257));
#912=CARTESIAN_POINT('Origin',(-1.75544926779071,1.01243419633232,-0.395000000000257));
#913=CARTESIAN_POINT('',(-1.75544926779071,1.01243419633232,-0.395000000000257));
#914=CARTESIAN_POINT('',(-1.75544926779071,0.,-0.395000000000257));
#915=CARTESIAN_POINT('',(-1.75544926779071,1.01243419633232,-0.730000000000257));
#916=CARTESIAN_POINT('',(-1.75544926779071,-2.46926015821663,-0.730000000000257));
#917=CARTESIAN_POINT('',(-1.75544926779071,1.01243419633232,-0.395000000000257));
#918=CARTESIAN_POINT('Origin',(-2.40227785170861E-13,1.74084717727448,-0.730000000000257));
#919=CARTESIAN_POINT('',(1.75544926779023,1.01243419633232,-0.730000000000257));
#920=CARTESIAN_POINT('Origin',(1.75544926779023,0.,-0.395000000000257));
#921=CARTESIAN_POINT('',(-0.302999999999551,1.01243419633232,-0.395000000000257));
#922=CARTESIAN_POINT('',(1.75544926779023,1.01243419633232,-0.395000000000257));
#923=CARTESIAN_POINT('',(-0.302999999999551,0.412434196332324,-0.395000000000257));
#924=CARTESIAN_POINT('',(-0.302999999999551,0.206217098166162,-0.395000000000257));
#925=CARTESIAN_POINT('',(0.303000000000498,0.412434196332324,-0.395000000000257));
#926=CARTESIAN_POINT('',(1.02922463389537,0.412434196332324,-0.395000000000257));
#927=CARTESIAN_POINT('',(0.303000000000498,1.01243419633232,-0.395000000000257));
#928=CARTESIAN_POINT('',(0.303000000000497,0.506217098166162,-0.395000000000257));
#929=CARTESIAN_POINT('',(1.75544926779023,1.01243419633232,-0.395000000000257));
#930=CARTESIAN_POINT('',(1.75544926779023,-2.46926015821663,-0.395000000000257));
#931=CARTESIAN_POINT('',(1.75544926779023,0.,-0.395000000000257));
#932=CARTESIAN_POINT('',(-1.75544926779071,-2.46926015821663,-0.395000000000257));
#933=CARTESIAN_POINT('',(0.877724633895114,-2.46926015821663,-0.395000000000257));
#934=CARTESIAN_POINT('',(-1.75544926779071,0.,-0.395000000000257));
#935=CARTESIAN_POINT('',(-1.19300000000024,-1.40076015821663,-0.395000000000257));
#936=CARTESIAN_POINT('Origin',(-1.11000000000024,-1.40076015821663,-0.395000000000257));
#937=CARTESIAN_POINT('',(1.02699999999976,-1.40076015821663,-0.395000000000257));
#938=CARTESIAN_POINT('Origin',(1.10999999999976,-1.40076015821663,-0.395000000000257));
#939=CARTESIAN_POINT('Origin',(1.10999999999976,-1.40076015821663,-0.395000000000257));
#940=CARTESIAN_POINT('',(1.02699999999976,-1.40076015821663,-0.195000000000257));
#941=CARTESIAN_POINT('',(1.02699999999976,-1.40076015821663,-0.395000000000257));
#942=CARTESIAN_POINT('Origin',(1.10999999999976,-1.40076015821663,-0.195000000000257));
#943=CARTESIAN_POINT('Origin',(-1.11000000000024,-1.40076015821663,-0.395000000000257));
#944=CARTESIAN_POINT('',(-1.19300000000024,-1.40076015821663,-0.195000000000257));
#945=CARTESIAN_POINT('',(-1.19300000000024,-1.40076015821663,-0.395000000000257));
#946=CARTESIAN_POINT('Origin',(-1.11000000000024,-1.40076015821663,-0.195000000000257));
#947=CARTESIAN_POINT('Origin',(-0.302999999999539,1.01243419633232,1.0571999999999));
#948=CARTESIAN_POINT('',(-0.302999999999549,1.01243419633232,-0.195000000000256));
#949=CARTESIAN_POINT('',(0.303000000000499,1.01243419633232,-0.195000000000255));
#950=CARTESIAN_POINT('',(-0.87911810175526,1.01243419633232,-0.195000000000256));
#951=CARTESIAN_POINT('',(-0.302999999999539,1.01243419633232,1.0571999999999));
#952=CARTESIAN_POINT('',(0.30300000000051,1.01243419633232,1.05719999999989));
#953=CARTESIAN_POINT('Origin',(-0.302999999999539,1.01243419633232,1.0571999999999));
#954=CARTESIAN_POINT('',(0.303000000000508,1.01243419633232,0.857199999999816));
#955=CARTESIAN_POINT('',(-0.30299999999954,1.01243419633232,0.857199999999968));
#956=CARTESIAN_POINT('',(0.356505076115835,1.01243419633232,0.857199999999802));
#957=CARTESIAN_POINT('',(0.30300000000051,1.01243419633232,1.05719999999989));
#958=CARTESIAN_POINT('',(0.30300000000051,1.01243419633232,1.05719999999989));
#959=CARTESIAN_POINT('',(-0.302999999999539,1.01243419633232,1.0571999999999));
#960=CARTESIAN_POINT('',(-0.302999999999539,1.01243419633232,1.0571999999999));
#961=CARTESIAN_POINT('',(-0.302999999999539,1.01243419633232,1.0571999999999));
#962=CARTESIAN_POINT('Origin',(0.30300000000051,1.01243419633232,1.05719999999989));
#963=CARTESIAN_POINT('',(0.303000000000499,0.412434196332324,-0.195000000000255));
#964=CARTESIAN_POINT('',(0.303000000000499,0.506217098166162,-0.195000000000255));
#965=CARTESIAN_POINT('',(0.30300000000051,0.412434196332324,1.05719999999989));
#966=CARTESIAN_POINT('Origin',(-0.302999999999539,0.412434196332324,1.0571999999999));
#967=CARTESIAN_POINT('',(-0.302999999999549,0.412434196332324,-0.195000000000256));
#968=CARTESIAN_POINT('',(-0.302999999999549,0.206217098166162,-0.195000000000256));
#969=CARTESIAN_POINT('',(-0.302999999999539,0.412434196332324,1.0571999999999));
#970=CARTESIAN_POINT('Origin',(0.30300000000051,0.412434196332324,1.05719999999989));
#971=CARTESIAN_POINT('',(-0.576118101755235,0.412434196332324,-0.195000000000256));
#972=CARTESIAN_POINT('Origin',(0.30300000000051,0.412434196332324,1.05719999999989));
#973=CARTESIAN_POINT('',(-0.30299999999954,0.412434196332324,0.857199999999968));
#974=CARTESIAN_POINT('',(0.303000000000508,0.412434196332324,0.857199999999816));
#975=CARTESIAN_POINT('',(0.659505076115859,0.412434196332324,0.857199999999726));
#976=CARTESIAN_POINT('',(-0.302999999999539,0.412434196332324,1.0571999999999));
#977=CARTESIAN_POINT('',(-0.302999999999539,0.412434196332324,1.0571999999999));
#978=CARTESIAN_POINT('',(0.30300000000051,0.412434196332324,1.05719999999989));
#979=CARTESIAN_POINT('',(4.8559144456981E-13,0.412434196332324,1.05719999999989));
#980=CARTESIAN_POINT('',(0.30300000000051,0.412434196332324,1.05719999999989));
#981=CARTESIAN_POINT('Origin',(-0.302999999999539,0.,1.0571999999999));
#982=CARTESIAN_POINT('',(-0.302999999999539,-1.55543419633232,1.05719999999989));
#983=CARTESIAN_POINT('',(-0.302999999999539,0.,1.05719999999989));
#984=CARTESIAN_POINT('',(0.30300000000051,-1.55543419633233,1.05719999999988));
#985=CARTESIAN_POINT('',(-0.151499999999759,-1.55543419633232,1.0571999999999));
#986=CARTESIAN_POINT('',(0.30300000000051,0.,1.05719999999988));
#987=CARTESIAN_POINT('Origin',(-0.302999999999539,0.,1.0571999999999));
#988=CARTESIAN_POINT('',(0.30300000000051,1.55543419633233,1.05719999999988));
#989=CARTESIAN_POINT('',(0.30300000000051,0.,1.05719999999988));
#990=CARTESIAN_POINT('',(-0.302999999999539,1.55543419633232,1.05719999999989));
#991=CARTESIAN_POINT('',(-0.151499999999779,1.55543419633232,1.0571999999999));
#992=CARTESIAN_POINT('',(-0.302999999999539,0.,1.05719999999989));
#993=CARTESIAN_POINT('Origin',(-0.302999999999459,-1.52072833867139E-17,
1.467));
#994=CARTESIAN_POINT('',(0.30300000000051,-0.2,1.467));
#995=CARTESIAN_POINT('Origin',(0.30300000000051,-1.52072833867139E-17,1.467));
#996=CARTESIAN_POINT('',(0.97818362676517,-0.2,1.467));
#997=CARTESIAN_POINT('',(-0.302999999999459,-0.2,1.467));
#998=CARTESIAN_POINT('Origin',(0.97818362676517,-1.52072833867139E-17,1.467));
#999=CARTESIAN_POINT('Origin',(-0.302999999999459,-1.52072833867139E-17,
1.467));
#1000=CARTESIAN_POINT('',(-0.9781836267627,-0.2,1.467));
#1001=CARTESIAN_POINT('Origin',(-0.9781836267627,-1.52072833867139E-17,
1.467));
#1002=CARTESIAN_POINT('',(-0.302999999999459,-0.2,1.467));
#1003=CARTESIAN_POINT('',(-0.302999999999459,-0.2,1.467));
#1004=CARTESIAN_POINT('Origin',(-0.302999999999459,-1.52072833867139E-17,
1.467));
#1005=CARTESIAN_POINT('Origin',(0.,1.0125,1.92));
#1006=CARTESIAN_POINT('',(0.303000000000588,1.01250000000012,1.91999999999981));
#1007=CARTESIAN_POINT('',(0.303000000000649,1.06336160409419,1.83917364515088));
#1008=CARTESIAN_POINT('',(0.789085165226792,1.0125,1.92));
#1009=CARTESIAN_POINT('',(0.151500000000278,1.01250000000012,1.91999999999982));
#1010=CARTESIAN_POINT('',(0.66061266627347,0.81883219155678,2.22776581444605));
#1011=CARTESIAN_POINT('',(-0.789085165223795,1.01250000000016,1.91999999999974));
#1012=CARTESIAN_POINT('',(-1.021946082458,1.36352970581339,1.36216365036169));
#1013=CARTESIAN_POINT('',(-0.302999999999459,1.0125,1.92));
#1014=CARTESIAN_POINT('',(-0.394542582611863,1.01250000000014,1.91999999999978));
#1015=CARTESIAN_POINT('',(-0.302999999999459,0.868898256336085,2.14820368521677));
#1016=CARTESIAN_POINT('',(1.45523620351155,2.34340614886747,-0.195000000000254));
#1017=CARTESIAN_POINT('',(-1.45523620351098,2.34340614886748,-0.195000000000257));
#1018=CARTESIAN_POINT('',(-0.727618101755489,2.34340614886748,-0.195000000000257));
#1019=CARTESIAN_POINT('',(1.01601015223126,1.68128820568143,0.857199999999971));
#1020=CARTESIAN_POINT('',(0.786028793724864,1.33459933415041,1.4081381438444));
#1021=CARTESIAN_POINT('',(-1.01601015222883,1.68128820568132,0.857200000000147));
#1022=CARTESIAN_POINT('',(0.508005076115311,1.68128820568156,0.857199999999764));
#1023=CARTESIAN_POINT('',(-0.621797683349587,1.08702666697994,1.80156647950217));
#1024=CARTESIAN_POINT('Origin',(0.,-3.1125,-1.4172));
#1025=CARTESIAN_POINT('',(-0.302999999999459,-1.0125,1.92));
#1026=CARTESIAN_POINT('',(-0.302999999999459,-1.91889825633609,0.47960368521677));
#1027=CARTESIAN_POINT('',(-0.789085165223687,-1.0125,1.92));
#1028=CARTESIAN_POINT('',(-0.394542582612116,-1.01250000000014,1.91999999999978));
#1029=CARTESIAN_POINT('',(-1.64118355763791,-2.29700858806957,-0.121267647669411));
#1030=CARTESIAN_POINT('',(0.789085165226792,-1.0125,1.92));
#1031=CARTESIAN_POINT('',(1.27985014145177,-1.75231107381365,0.744334516413845));
#1032=CARTESIAN_POINT('',(0.303000000000663,-1.0125,1.92));
#1033=CARTESIAN_POINT('',(0.151500000000395,-1.01250000000012,1.91999999999982));
#1034=CARTESIAN_POINT('',(0.303000000000352,-2.11336160409419,0.170573645150883));
#1035=CARTESIAN_POINT('',(-1.45523620351098,-2.34340614886748,-0.195000000000257));
#1036=CARTESIAN_POINT('',(1.45523620351155,-2.34340614886747,-0.195000000000254));
#1037=CARTESIAN_POINT('',(-0.727618101755491,-2.34340614886748,-0.195000000000256));
#1038=CARTESIAN_POINT('',(-1.01601015222883,-1.68128820568132,0.857200000000147));
#1039=CARTESIAN_POINT('',(-1.24103515852802,-2.02050554923675,0.318135181470056));
#1040=CARTESIAN_POINT('',(1.01601015223126,-1.68128820568143,0.857199999999971));
#1041=CARTESIAN_POINT('',(0.508005076115895,-1.68128820568156,0.857199999999764));
#1042=CARTESIAN_POINT('',(1.40526626890134,-2.26807821640807,-0.0752931541890529));
#1043=CARTESIAN_POINT('Origin',(1.45523620351155,0.,-0.195000000000254));
#1044=CARTESIAN_POINT('',(1.45523620351155,0.,-0.195000000000254));
#1045=CARTESIAN_POINT('',(1.01601015223126,0.,0.857199999999971));
#1046=CARTESIAN_POINT('Origin',(1.01601015223126,0.,0.857199999999637));
#1047=CARTESIAN_POINT('',(-1.01601015222883,0.,0.857200000000147));
#1048=CARTESIAN_POINT('',(0.303000000000508,0.506217098166162,0.857199999999816));
#1049=CARTESIAN_POINT('',(-0.30299999999954,0.206217098166162,0.857199999999968));
#1050=CARTESIAN_POINT('Origin',(-0.302999999999459,0.,1.91999999999977));
#1051=CARTESIAN_POINT('',(-0.302999999999459,0.,1.91999999999977));
#1052=CARTESIAN_POINT('Origin',(-0.789085165223795,0.,1.91999999999974));
#1053=CARTESIAN_POINT('',(-0.789085165223795,0.,1.91999999999974));
#1054=CARTESIAN_POINT('Origin',(-1.75544926779071,0.,-0.395000000000257));
#1055=CARTESIAN_POINT('Origin',(-1.45523620351098,0.,-0.195000000000257));
#1056=CARTESIAN_POINT('',(-1.45523620351098,0.,-0.195000000000257));
#1057=CARTESIAN_POINT('Origin',(-1.01601015222883,0.,0.857200000000147));
#1058=CARTESIAN_POINT('Origin',(0.789085165226945,0.,1.91999999999963));
#1059=CARTESIAN_POINT('',(0.789085165226945,0.,1.91999999999963));
#1060=CARTESIAN_POINT('Origin',(0.303000000000588,0.,1.91999999999981));
#1061=CARTESIAN_POINT('',(0.303000000000588,0.,1.91999999999981));
#1062=CARTESIAN_POINT('Origin',(0.30300000000051,0.,1.05719999999988));
#1063=UNCERTAINTY_MEASURE_WITH_UNIT(LENGTH_MEASURE(0.000393700787401575),
#1068,'DISTANCE_ACCURACY_VALUE',
'Maximum model space distance between geometric entities at asserted c
onnectivities');
#1064=UNCERTAINTY_MEASURE_WITH_UNIT(LENGTH_MEASURE(0.000393700787401575),
#1068,'DISTANCE_ACCURACY_VALUE',
'Maximum model space distance between geometric entities at asserted c
onnectivities');
#1065=(
GEOMETRIC_REPRESENTATION_CONTEXT(3)
GLOBAL_UNCERTAINTY_ASSIGNED_CONTEXT((#1063))
GLOBAL_UNIT_ASSIGNED_CONTEXT((#1068,#1072,#1073))
REPRESENTATION_CONTEXT('','3D')
);
#1066=(
GEOMETRIC_REPRESENTATION_CONTEXT(3)
GLOBAL_UNCERTAINTY_ASSIGNED_CONTEXT((#1064))
GLOBAL_UNIT_ASSIGNED_CONTEXT((#1068,#1072,#1073))
REPRESENTATION_CONTEXT('','3D')
);
#1067=DIMENSIONAL_EXPONENTS(1.,0.,0.,0.,0.,0.,0.);
#1068=(
CONVERSION_BASED_UNIT('inch',#1071)
LENGTH_UNIT()
NAMED_UNIT(#1067)
);
#1069=(
LENGTH_UNIT()
NAMED_UNIT(*)
SI_UNIT(.MILLI.,.METRE.)
);
#1070=(
LENGTH_UNIT()
NAMED_UNIT(*)
SI_UNIT($,.METRE.)
);
#1071=LENGTH_MEASURE_WITH_UNIT(LENGTH_MEASURE(25.4),#1069);
#1072=(
NAMED_UNIT(*)
PLANE_ANGLE_UNIT()
SI_UNIT($,.RADIAN.)
);
#1073=(
NAMED_UNIT(*)
SI_UNIT($,.STERADIAN.)
SOLID_ANGLE_UNIT()
);
#1074=SHAPE_DEFINITION_REPRESENTATION(#1075,#1076);
#1075=PRODUCT_DEFINITION_SHAPE('',$,#1078);
#1076=SHAPE_REPRESENTATION('',(#675),#1065);
#1077=PRODUCT_DEFINITION_CONTEXT('part definition',#1082,'design');
#1078=PRODUCT_DEFINITION('2026-02-17-11-04-00-683',
'R1-C4 - Central-foot',#1079,#1077);
#1079=PRODUCT_DEFINITION_FORMATION('',$,#1084);
#1080=PRODUCT_RELATED_PRODUCT_CATEGORY('R1-C4 - Central-foot',
'R1-C4 - Central-foot',(#1084));
#1081=APPLICATION_PROTOCOL_DEFINITION('international standard',
'automotive_design',2009,#1082);
#1082=APPLICATION_CONTEXT(
'Core Data for Automotive Mechanical Design Process');
#1083=PRODUCT_CONTEXT('part definition',#1082,'mechanical');
#1084=PRODUCT('2026-02-17-11-04-00-683','R1-C4 - Central-foot',$,(#1083));
#1085=PRESENTATION_STYLE_ASSIGNMENT((#1086));
#1086=SURFACE_STYLE_USAGE(.BOTH.,#1087);
#1087=SURFACE_SIDE_STYLE('',(#1088));
#1088=SURFACE_STYLE_FILL_AREA(#1089);
#1089=FILL_AREA_STYLE('Acier - Satin\X\E9',(#1090));
#1090=FILL_AREA_STYLE_COLOUR('Acier - Satin\X\E9',#1091);
#1091=COLOUR_RGB('Acier - Satin\X\E9',0.627450980392157,0.627450980392157,
0.627450980392157);
ENDSEC;
END-ISO-10303-21;
