ISO-10303-21;
HEADER;
/* Generated by software containing ST-Developer
 * from STEP Tools, Inc. (www.steptools.com) 
 */

FILE_DESCRIPTION(
/* description */ (''),
/* implementation_level */ '2;1');

FILE_NAME(
/* name */ 'R1-C4 - Arret en translation v2.step',
/* time_stamp */ '2026-09-30T00:27:39+02:00',
/* author */ (''),
/* organization */ (''),
/* preprocessor_version */ 'ST-DEVELOPER v20.2',
/* originating_system */ 'Autodesk Translation Framework v15.15.0.0',
/* authorisation */ '');

FILE_SCHEMA (('AUTOMOTIVE_DESIGN { 1 0 10303 214 3 1 1 }'));
ENDSEC;

DATA;
#10=MECHANICAL_DESIGN_GEOMETRIC_PRESENTATION_REPRESENTATION('',(#13),#1835);
#11=SHAPE_REPRESENTATION_RELATIONSHIP('SRR','None',#1842,#12);
#12=ADVANCED_BREP_SHAPE_REPRESENTATION('',(#14),#1834);
#13=STYLED_ITEM('',(#1851),#14);
#14=MANIFOLD_SOLID_BREP('Corps1',#1135);
#15=FACE_BOUND('',#140,.T.);
#16=FACE_BOUND('',#141,.T.);
#17=FACE_BOUND('',#142,.T.);
#18=FACE_BOUND('',#143,.T.);
#19=FACE_BOUND('',#144,.T.);
#20=FACE_BOUND('',#145,.T.);
#21=FACE_BOUND('',#146,.T.);
#22=FACE_BOUND('',#147,.T.);
#23=FACE_BOUND('',#157,.T.);
#24=FACE_BOUND('',#198,.T.);
#25=FACE_BOUND('',#199,.T.);
#26=FACE_BOUND('',#200,.T.);
#27=FACE_BOUND('',#201,.T.);
#28=FACE_BOUND('',#202,.T.);
#29=FACE_BOUND('',#203,.T.);
#30=FACE_BOUND('',#204,.T.);
#31=PLANE('',#1161);
#32=PLANE('',#1165);
#33=PLANE('',#1171);
#34=PLANE('',#1172);
#35=PLANE('',#1173);
#36=PLANE('',#1174);
#37=PLANE('',#1175);
#38=PLANE('',#1176);
#39=PLANE('',#1177);
#40=PLANE('',#1180);
#41=PLANE('',#1181);
#42=PLANE('',#1182);
#43=PLANE('',#1183);
#44=PLANE('',#1184);
#45=PLANE('',#1185);
#46=PLANE('',#1186);
#47=PLANE('',#1187);
#48=PLANE('',#1188);
#49=PLANE('',#1189);
#50=PLANE('',#1190);
#51=PLANE('',#1191);
#52=PLANE('',#1192);
#53=PLANE('',#1193);
#54=PLANE('',#1194);
#55=PLANE('',#1201);
#56=PLANE('',#1204);
#57=PLANE('',#1205);
#58=PLANE('',#1206);
#59=PLANE('',#1207);
#60=PLANE('',#1208);
#61=PLANE('',#1209);
#62=PLANE('',#1210);
#63=PLANE('',#1211);
#64=PLANE('',#1212);
#65=PLANE('',#1213);
#66=PLANE('',#1214);
#67=PLANE('',#1215);
#68=PLANE('',#1216);
#69=PLANE('',#1217);
#70=PLANE('',#1218);
#71=PLANE('',#1219);
#72=PLANE('',#1220);
#73=PLANE('',#1221);
#74=PLANE('',#1222);
#75=PLANE('',#1223);
#76=PLANE('',#1224);
#77=FACE_OUTER_BOUND('',#133,.T.);
#78=FACE_OUTER_BOUND('',#134,.T.);
#79=FACE_OUTER_BOUND('',#135,.T.);
#80=FACE_OUTER_BOUND('',#136,.T.);
#81=FACE_OUTER_BOUND('',#137,.T.);
#82=FACE_OUTER_BOUND('',#138,.T.);
#83=FACE_OUTER_BOUND('',#139,.T.);
#84=FACE_OUTER_BOUND('',#148,.T.);
#85=FACE_OUTER_BOUND('',#149,.T.);
#86=FACE_OUTER_BOUND('',#150,.T.);
#87=FACE_OUTER_BOUND('',#151,.T.);
#88=FACE_OUTER_BOUND('',#152,.T.);
#89=FACE_OUTER_BOUND('',#153,.T.);
#90=FACE_OUTER_BOUND('',#154,.T.);
#91=FACE_OUTER_BOUND('',#155,.T.);
#92=FACE_OUTER_BOUND('',#156,.T.);
#93=FACE_OUTER_BOUND('',#158,.T.);
#94=FACE_OUTER_BOUND('',#159,.T.);
#95=FACE_OUTER_BOUND('',#160,.T.);
#96=FACE_OUTER_BOUND('',#161,.T.);
#97=FACE_OUTER_BOUND('',#162,.T.);
#98=FACE_OUTER_BOUND('',#163,.T.);
#99=FACE_OUTER_BOUND('',#164,.T.);
#100=FACE_OUTER_BOUND('',#165,.T.);
#101=FACE_OUTER_BOUND('',#166,.T.);
#102=FACE_OUTER_BOUND('',#167,.T.);
#103=FACE_OUTER_BOUND('',#168,.T.);
#104=FACE_OUTER_BOUND('',#169,.T.);
#105=FACE_OUTER_BOUND('',#170,.T.);
#106=FACE_OUTER_BOUND('',#171,.T.);
#107=FACE_OUTER_BOUND('',#172,.T.);
#108=FACE_OUTER_BOUND('',#173,.T.);
#109=FACE_OUTER_BOUND('',#174,.T.);
#110=FACE_OUTER_BOUND('',#175,.T.);
#111=FACE_OUTER_BOUND('',#176,.T.);
#112=FACE_OUTER_BOUND('',#177,.T.);
#113=FACE_OUTER_BOUND('',#178,.T.);
#114=FACE_OUTER_BOUND('',#179,.T.);
#115=FACE_OUTER_BOUND('',#180,.T.);
#116=FACE_OUTER_BOUND('',#181,.T.);
#117=FACE_OUTER_BOUND('',#182,.T.);
#118=FACE_OUTER_BOUND('',#183,.T.);
#119=FACE_OUTER_BOUND('',#184,.T.);
#120=FACE_OUTER_BOUND('',#185,.T.);
#121=FACE_OUTER_BOUND('',#186,.T.);
#122=FACE_OUTER_BOUND('',#187,.T.);
#123=FACE_OUTER_BOUND('',#188,.T.);
#124=FACE_OUTER_BOUND('',#189,.T.);
#125=FACE_OUTER_BOUND('',#190,.T.);
#126=FACE_OUTER_BOUND('',#191,.T.);
#127=FACE_OUTER_BOUND('',#192,.T.);
#128=FACE_OUTER_BOUND('',#193,.T.);
#129=FACE_OUTER_BOUND('',#194,.T.);
#130=FACE_OUTER_BOUND('',#195,.T.);
#131=FACE_OUTER_BOUND('',#196,.T.);
#132=FACE_OUTER_BOUND('',#197,.T.);
#133=EDGE_LOOP('',(#757,#758,#759,#760));
#134=EDGE_LOOP('',(#761,#762,#763,#764));
#135=EDGE_LOOP('',(#765,#766,#767,#768));
#136=EDGE_LOOP('',(#769,#770,#771,#772));
#137=EDGE_LOOP('',(#773,#774,#775,#776));
#138=EDGE_LOOP('',(#777,#778,#779,#780));
#139=EDGE_LOOP('',(#781,#782,#783,#784,#785,#786,#787,#788,#789,#790,#791,
#792,#793,#794,#795,#796,#797,#798,#799,#800,#801,#802,#803,#804,#805,#806,
#807,#808));
#140=EDGE_LOOP('',(#809));
#141=EDGE_LOOP('',(#810));
#142=EDGE_LOOP('',(#811));
#143=EDGE_LOOP('',(#812));
#144=EDGE_LOOP('',(#813));
#145=EDGE_LOOP('',(#814));
#146=EDGE_LOOP('',(#815));
#147=EDGE_LOOP('',(#816));
#148=EDGE_LOOP('',(#817,#818,#819,#820));
#149=EDGE_LOOP('',(#821,#822,#823,#824));
#150=EDGE_LOOP('',(#825,#826,#827,#828));
#151=EDGE_LOOP('',(#829,#830,#831,#832));
#152=EDGE_LOOP('',(#833,#834,#835,#836));
#153=EDGE_LOOP('',(#837,#838,#839,#840));
#154=EDGE_LOOP('',(#841,#842,#843,#844));
#155=EDGE_LOOP('',(#845,#846,#847,#848));
#156=EDGE_LOOP('',(#849));
#157=EDGE_LOOP('',(#850,#851,#852,#853));
#158=EDGE_LOOP('',(#854,#855,#856,#857));
#159=EDGE_LOOP('',(#858,#859,#860,#861));
#160=EDGE_LOOP('',(#862,#863,#864,#865));
#161=EDGE_LOOP('',(#866,#867,#868,#869));
#162=EDGE_LOOP('',(#870,#871,#872,#873));
#163=EDGE_LOOP('',(#874,#875,#876,#877));
#164=EDGE_LOOP('',(#878,#879,#880,#881,#882,#883));
#165=EDGE_LOOP('',(#884,#885,#886,#887,#888,#889));
#166=EDGE_LOOP('',(#890,#891,#892,#893,#894,#895,#896,#897));
#167=EDGE_LOOP('',(#898,#899,#900,#901,#902,#903));
#168=EDGE_LOOP('',(#904,#905,#906,#907,#908,#909));
#169=EDGE_LOOP('',(#910,#911,#912,#913,#914,#915,#916,#917));
#170=EDGE_LOOP('',(#918,#919,#920,#921,#922,#923));
#171=EDGE_LOOP('',(#924,#925,#926,#927,#928,#929));
#172=EDGE_LOOP('',(#930,#931,#932,#933));
#173=EDGE_LOOP('',(#934,#935,#936,#937));
#174=EDGE_LOOP('',(#938,#939,#940,#941));
#175=EDGE_LOOP('',(#942,#943,#944,#945));
#176=EDGE_LOOP('',(#946,#947,#948,#949));
#177=EDGE_LOOP('',(#950,#951,#952,#953));
#178=EDGE_LOOP('',(#954,#955,#956,#957,#958,#959));
#179=EDGE_LOOP('',(#960,#961,#962,#963));
#180=EDGE_LOOP('',(#964,#965,#966,#967));
#181=EDGE_LOOP('',(#968,#969,#970,#971));
#182=EDGE_LOOP('',(#972,#973,#974,#975));
#183=EDGE_LOOP('',(#976,#977,#978,#979,#980,#981));
#184=EDGE_LOOP('',(#982,#983,#984,#985));
#185=EDGE_LOOP('',(#986,#987,#988,#989));
#186=EDGE_LOOP('',(#990,#991,#992,#993));
#187=EDGE_LOOP('',(#994,#995,#996,#997));
#188=EDGE_LOOP('',(#998,#999,#1000,#1001));
#189=EDGE_LOOP('',(#1002,#1003,#1004,#1005));
#190=EDGE_LOOP('',(#1006,#1007,#1008,#1009));
#191=EDGE_LOOP('',(#1010,#1011,#1012,#1013));
#192=EDGE_LOOP('',(#1014,#1015,#1016,#1017));
#193=EDGE_LOOP('',(#1018,#1019,#1020,#1021));
#194=EDGE_LOOP('',(#1022,#1023,#1024,#1025));
#195=EDGE_LOOP('',(#1026,#1027,#1028,#1029));
#196=EDGE_LOOP('',(#1030,#1031,#1032,#1033));
#197=EDGE_LOOP('',(#1034,#1035,#1036,#1037,#1038,#1039,#1040,#1041,#1042,
#1043,#1044,#1045,#1046,#1047,#1048,#1049,#1050,#1051,#1052,#1053,#1054,
#1055,#1056,#1057,#1058,#1059,#1060,#1061));
#198=EDGE_LOOP('',(#1062));
#199=EDGE_LOOP('',(#1063));
#200=EDGE_LOOP('',(#1064));
#201=EDGE_LOOP('',(#1065));
#202=EDGE_LOOP('',(#1066));
#203=EDGE_LOOP('',(#1067));
#204=EDGE_LOOP('',(#1068));
#205=LINE('',#1520,#341);
#206=LINE('',#1526,#342);
#207=LINE('',#1532,#343);
#208=LINE('',#1538,#344);
#209=LINE('',#1543,#345);
#210=LINE('',#1545,#346);
#211=LINE('',#1547,#347);
#212=LINE('',#1548,#348);
#213=LINE('',#1553,#349);
#214=LINE('',#1557,#350);
#215=LINE('',#1559,#351);
#216=LINE('',#1561,#352);
#217=LINE('',#1563,#353);
#218=LINE('',#1565,#354);
#219=LINE('',#1567,#355);
#220=LINE('',#1569,#356);
#221=LINE('',#1571,#357);
#222=LINE('',#1573,#358);
#223=LINE('',#1575,#359);
#224=LINE('',#1577,#360);
#225=LINE('',#1579,#361);
#226=LINE('',#1583,#362);
#227=LINE('',#1585,#363);
#228=LINE('',#1587,#364);
#229=LINE('',#1589,#365);
#230=LINE('',#1591,#366);
#231=LINE('',#1593,#367);
#232=LINE('',#1595,#368);
#233=LINE('',#1597,#369);
#234=LINE('',#1599,#370);
#235=LINE('',#1601,#371);
#236=LINE('',#1603,#372);
#237=LINE('',#1605,#373);
#238=LINE('',#1606,#374);
#239=LINE('',#1618,#375);
#240=LINE('',#1619,#376);
#241=LINE('',#1620,#377);
#242=LINE('',#1623,#378);
#243=LINE('',#1624,#379);
#244=LINE('',#1628,#380);
#245=LINE('',#1630,#381);
#246=LINE('',#1632,#382);
#247=LINE('',#1633,#383);
#248=LINE('',#1636,#384);
#249=LINE('',#1638,#385);
#250=LINE('',#1639,#386);
#251=LINE('',#1642,#387);
#252=LINE('',#1644,#388);
#253=LINE('',#1645,#389);
#254=LINE('',#1647,#390);
#255=LINE('',#1648,#391);
#256=LINE('',#1652,#392);
#257=LINE('',#1657,#393);
#258=LINE('',#1659,#394);
#259=LINE('',#1660,#395);
#260=LINE('',#1663,#396);
#261=LINE('',#1665,#397);
#262=LINE('',#1666,#398);
#263=LINE('',#1669,#399);
#264=LINE('',#1671,#400);
#265=LINE('',#1672,#401);
#266=LINE('',#1675,#402);
#267=LINE('',#1677,#403);
#268=LINE('',#1678,#404);
#269=LINE('',#1681,#405);
#270=LINE('',#1683,#406);
#271=LINE('',#1684,#407);
#272=LINE('',#1687,#408);
#273=LINE('',#1689,#409);
#274=LINE('',#1690,#410);
#275=LINE('',#1693,#411);
#276=LINE('',#1694,#412);
#277=LINE('',#1697,#413);
#278=LINE('',#1698,#414);
#279=LINE('',#1701,#415);
#280=LINE('',#1703,#416);
#281=LINE('',#1705,#417);
#282=LINE('',#1707,#418);
#283=LINE('',#1708,#419);
#284=LINE('',#1711,#420);
#285=LINE('',#1712,#421);
#286=LINE('',#1715,#422);
#287=LINE('',#1716,#423);
#288=LINE('',#1719,#424);
#289=LINE('',#1721,#425);
#290=LINE('',#1723,#426);
#291=LINE('',#1725,#427);
#292=LINE('',#1726,#428);
#293=LINE('',#1729,#429);
#294=LINE('',#1731,#430);
#295=LINE('',#1732,#431);
#296=LINE('',#1735,#432);
#297=LINE('',#1737,#433);
#298=LINE('',#1738,#434);
#299=LINE('',#1742,#435);
#300=LINE('',#1746,#436);
#301=LINE('',#1750,#437);
#302=LINE('',#1753,#438);
#303=LINE('',#1754,#439);
#304=LINE('',#1758,#440);
#305=LINE('',#1761,#441);
#306=LINE('',#1762,#442);
#307=LINE('',#1765,#443);
#308=LINE('',#1766,#444);
#309=LINE('',#1769,#445);
#310=LINE('',#1770,#446);
#311=LINE('',#1773,#447);
#312=LINE('',#1774,#448);
#313=LINE('',#1776,#449);
#314=LINE('',#1779,#450);
#315=LINE('',#1780,#451);
#316=LINE('',#1783,#452);
#317=LINE('',#1784,#453);
#318=LINE('',#1787,#454);
#319=LINE('',#1788,#455);
#320=LINE('',#1791,#456);
#321=LINE('',#1792,#457);
#322=LINE('',#1794,#458);
#323=LINE('',#1796,#459);
#324=LINE('',#1799,#460);
#325=LINE('',#1800,#461);
#326=LINE('',#1803,#462);
#327=LINE('',#1804,#463);
#328=LINE('',#1807,#464);
#329=LINE('',#1808,#465);
#330=LINE('',#1811,#466);
#331=LINE('',#1812,#467);
#332=LINE('',#1815,#468);
#333=LINE('',#1816,#469);
#334=LINE('',#1819,#470);
#335=LINE('',#1820,#471);
#336=LINE('',#1823,#472);
#337=LINE('',#1824,#473);
#338=LINE('',#1827,#474);
#339=LINE('',#1828,#475);
#340=LINE('',#1830,#476);
#341=VECTOR('',#1231,1.95000000000001);
#342=VECTOR('',#1238,1.95000000000001);
#343=VECTOR('',#1245,1.95);
#344=VECTOR('',#1252,1.95);
#345=VECTOR('',#1257,10.);
#346=VECTOR('',#1258,10.);
#347=VECTOR('',#1259,10.);
#348=VECTOR('',#1260,10.);
#349=VECTOR('',#1265,10.);
#350=VECTOR('',#1270,10.);
#351=VECTOR('',#1271,10.);
#352=VECTOR('',#1272,10.);
#353=VECTOR('',#1273,10.);
#354=VECTOR('',#1274,10.);
#355=VECTOR('',#1275,10.);
#356=VECTOR('',#1276,10.);
#357=VECTOR('',#1277,10.);
#358=VECTOR('',#1278,10.);
#359=VECTOR('',#1279,10.);
#360=VECTOR('',#1280,10.);
#361=VECTOR('',#1281,10.);
#362=VECTOR('',#1284,10.);
#363=VECTOR('',#1285,10.);
#364=VECTOR('',#1286,10.);
#365=VECTOR('',#1287,10.);
#366=VECTOR('',#1288,10.);
#367=VECTOR('',#1289,10.);
#368=VECTOR('',#1290,10.);
#369=VECTOR('',#1291,10.);
#370=VECTOR('',#1292,10.);
#371=VECTOR('',#1293,10.);
#372=VECTOR('',#1294,10.);
#373=VECTOR('',#1295,10.);
#374=VECTOR('',#1296,10.);
#375=VECTOR('',#1307,10.);
#376=VECTOR('',#1308,10.);
#377=VECTOR('',#1309,10.);
#378=VECTOR('',#1312,10.);
#379=VECTOR('',#1313,10.);
#380=VECTOR('',#1316,10.);
#381=VECTOR('',#1317,10.);
#382=VECTOR('',#1318,10.);
#383=VECTOR('',#1319,10.);
#384=VECTOR('',#1322,10.);
#385=VECTOR('',#1323,10.);
#386=VECTOR('',#1324,10.);
#387=VECTOR('',#1327,10.);
#388=VECTOR('',#1328,10.);
#389=VECTOR('',#1329,10.);
#390=VECTOR('',#1332,10.);
#391=VECTOR('',#1333,10.);
#392=VECTOR('',#1338,11.025);
#393=VECTOR('',#1345,10.);
#394=VECTOR('',#1346,10.);
#395=VECTOR('',#1347,10.);
#396=VECTOR('',#1350,10.);
#397=VECTOR('',#1351,10.);
#398=VECTOR('',#1352,10.);
#399=VECTOR('',#1355,10.);
#400=VECTOR('',#1356,10.);
#401=VECTOR('',#1357,10.);
#402=VECTOR('',#1360,10.);
#403=VECTOR('',#1361,10.);
#404=VECTOR('',#1362,10.);
#405=VECTOR('',#1365,10.);
#406=VECTOR('',#1366,10.);
#407=VECTOR('',#1367,10.);
#408=VECTOR('',#1370,10.);
#409=VECTOR('',#1371,10.);
#410=VECTOR('',#1372,10.);
#411=VECTOR('',#1375,10.);
#412=VECTOR('',#1376,10.);
#413=VECTOR('',#1379,10.);
#414=VECTOR('',#1380,10.);
#415=VECTOR('',#1383,10.);
#416=VECTOR('',#1384,10.);
#417=VECTOR('',#1385,10.);
#418=VECTOR('',#1386,10.);
#419=VECTOR('',#1387,10.);
#420=VECTOR('',#1390,10.);
#421=VECTOR('',#1391,10.);
#422=VECTOR('',#1394,10.);
#423=VECTOR('',#1395,10.);
#424=VECTOR('',#1398,10.);
#425=VECTOR('',#1399,10.);
#426=VECTOR('',#1400,10.);
#427=VECTOR('',#1401,10.);
#428=VECTOR('',#1402,10.);
#429=VECTOR('',#1405,10.);
#430=VECTOR('',#1406,10.);
#431=VECTOR('',#1407,10.);
#432=VECTOR('',#1410,10.);
#433=VECTOR('',#1411,10.);
#434=VECTOR('',#1412,10.);
#435=VECTOR('',#1417,1.95);
#436=VECTOR('',#1422,1.95);
#437=VECTOR('',#1427,1.95);
#438=VECTOR('',#1430,10.);
#439=VECTOR('',#1431,10.);
#440=VECTOR('',#1436,10.);
#441=VECTOR('',#1439,10.);
#442=VECTOR('',#1440,10.);
#443=VECTOR('',#1443,10.);
#444=VECTOR('',#1444,10.);
#445=VECTOR('',#1447,10.);
#446=VECTOR('',#1448,10.);
#447=VECTOR('',#1451,10.);
#448=VECTOR('',#1452,10.);
#449=VECTOR('',#1455,10.);
#450=VECTOR('',#1458,10.);
#451=VECTOR('',#1459,10.);
#452=VECTOR('',#1462,10.);
#453=VECTOR('',#1463,10.);
#454=VECTOR('',#1466,10.);
#455=VECTOR('',#1467,10.);
#456=VECTOR('',#1470,10.);
#457=VECTOR('',#1471,10.);
#458=VECTOR('',#1474,10.);
#459=VECTOR('',#1477,10.);
#460=VECTOR('',#1480,10.);
#461=VECTOR('',#1481,10.);
#462=VECTOR('',#1484,10.);
#463=VECTOR('',#1485,10.);
#464=VECTOR('',#1488,10.);
#465=VECTOR('',#1489,10.);
#466=VECTOR('',#1492,10.);
#467=VECTOR('',#1493,10.);
#468=VECTOR('',#1496,10.);
#469=VECTOR('',#1497,10.);
#470=VECTOR('',#1500,10.);
#471=VECTOR('',#1501,10.);
#472=VECTOR('',#1504,10.);
#473=VECTOR('',#1505,10.);
#474=VECTOR('',#1508,10.);
#475=VECTOR('',#1509,10.);
#476=VECTOR('',#1512,10.);
#477=CIRCLE('',#1150,1.95000000000001);
#478=CIRCLE('',#1151,1.95000000000001);
#479=CIRCLE('',#1153,1.95000000000001);
#480=CIRCLE('',#1154,1.95000000000001);
#481=CIRCLE('',#1156,1.95);
#482=CIRCLE('',#1157,1.95);
#483=CIRCLE('',#1159,1.95);
#484=CIRCLE('',#1160,1.95);
#485=CIRCLE('',#1163,115.);
#486=CIRCLE('',#1164,115.);
#487=CIRCLE('',#1166,115.);
#488=CIRCLE('',#1167,1.95);
#489=CIRCLE('',#1168,1.95);
#490=CIRCLE('',#1169,1.95);
#491=CIRCLE('',#1170,11.025);
#492=CIRCLE('',#1179,11.025);
#493=CIRCLE('',#1196,1.95);
#494=CIRCLE('',#1198,1.95);
#495=CIRCLE('',#1200,1.95);
#496=CIRCLE('',#1203,115.);
#497=VERTEX_POINT('',#1517);
#498=VERTEX_POINT('',#1519);
#499=VERTEX_POINT('',#1523);
#500=VERTEX_POINT('',#1525);
#501=VERTEX_POINT('',#1529);
#502=VERTEX_POINT('',#1531);
#503=VERTEX_POINT('',#1535);
#504=VERTEX_POINT('',#1537);
#505=VERTEX_POINT('',#1541);
#506=VERTEX_POINT('',#1542);
#507=VERTEX_POINT('',#1544);
#508=VERTEX_POINT('',#1546);
#509=VERTEX_POINT('',#1550);
#510=VERTEX_POINT('',#1552);
#511=VERTEX_POINT('',#1556);
#512=VERTEX_POINT('',#1558);
#513=VERTEX_POINT('',#1560);
#514=VERTEX_POINT('',#1562);
#515=VERTEX_POINT('',#1564);
#516=VERTEX_POINT('',#1566);
#517=VERTEX_POINT('',#1568);
#518=VERTEX_POINT('',#1570);
#519=VERTEX_POINT('',#1572);
#520=VERTEX_POINT('',#1574);
#521=VERTEX_POINT('',#1576);
#522=VERTEX_POINT('',#1578);
#523=VERTEX_POINT('',#1580);
#524=VERTEX_POINT('',#1582);
#525=VERTEX_POINT('',#1584);
#526=VERTEX_POINT('',#1586);
#527=VERTEX_POINT('',#1588);
#528=VERTEX_POINT('',#1590);
#529=VERTEX_POINT('',#1592);
#530=VERTEX_POINT('',#1594);
#531=VERTEX_POINT('',#1596);
#532=VERTEX_POINT('',#1598);
#533=VERTEX_POINT('',#1600);
#534=VERTEX_POINT('',#1602);
#535=VERTEX_POINT('',#1604);
#536=VERTEX_POINT('',#1607);
#537=VERTEX_POINT('',#1609);
#538=VERTEX_POINT('',#1611);
#539=VERTEX_POINT('',#1613);
#540=VERTEX_POINT('',#1616);
#541=VERTEX_POINT('',#1617);
#542=VERTEX_POINT('',#1622);
#543=VERTEX_POINT('',#1626);
#544=VERTEX_POINT('',#1627);
#545=VERTEX_POINT('',#1629);
#546=VERTEX_POINT('',#1631);
#547=VERTEX_POINT('',#1635);
#548=VERTEX_POINT('',#1637);
#549=VERTEX_POINT('',#1641);
#550=VERTEX_POINT('',#1643);
#551=VERTEX_POINT('',#1651);
#552=VERTEX_POINT('',#1656);
#553=VERTEX_POINT('',#1658);
#554=VERTEX_POINT('',#1662);
#555=VERTEX_POINT('',#1664);
#556=VERTEX_POINT('',#1668);
#557=VERTEX_POINT('',#1670);
#558=VERTEX_POINT('',#1674);
#559=VERTEX_POINT('',#1676);
#560=VERTEX_POINT('',#1680);
#561=VERTEX_POINT('',#1682);
#562=VERTEX_POINT('',#1686);
#563=VERTEX_POINT('',#1688);
#564=VERTEX_POINT('',#1692);
#565=VERTEX_POINT('',#1696);
#566=VERTEX_POINT('',#1700);
#567=VERTEX_POINT('',#1702);
#568=VERTEX_POINT('',#1704);
#569=VERTEX_POINT('',#1706);
#570=VERTEX_POINT('',#1710);
#571=VERTEX_POINT('',#1714);
#572=VERTEX_POINT('',#1718);
#573=VERTEX_POINT('',#1720);
#574=VERTEX_POINT('',#1722);
#575=VERTEX_POINT('',#1724);
#576=VERTEX_POINT('',#1728);
#577=VERTEX_POINT('',#1730);
#578=VERTEX_POINT('',#1734);
#579=VERTEX_POINT('',#1736);
#580=VERTEX_POINT('',#1740);
#581=VERTEX_POINT('',#1744);
#582=VERTEX_POINT('',#1748);
#583=VERTEX_POINT('',#1752);
#584=VERTEX_POINT('',#1756);
#585=VERTEX_POINT('',#1760);
#586=VERTEX_POINT('',#1764);
#587=VERTEX_POINT('',#1768);
#588=VERTEX_POINT('',#1772);
#589=VERTEX_POINT('',#1778);
#590=VERTEX_POINT('',#1782);
#591=VERTEX_POINT('',#1786);
#592=VERTEX_POINT('',#1790);
#593=VERTEX_POINT('',#1798);
#594=VERTEX_POINT('',#1802);
#595=VERTEX_POINT('',#1806);
#596=VERTEX_POINT('',#1810);
#597=VERTEX_POINT('',#1814);
#598=VERTEX_POINT('',#1818);
#599=VERTEX_POINT('',#1822);
#600=VERTEX_POINT('',#1826);
#601=EDGE_CURVE('',#497,#497,#477,.T.);
#602=EDGE_CURVE('',#497,#498,#205,.T.);
#603=EDGE_CURVE('',#498,#498,#478,.T.);
#604=EDGE_CURVE('',#499,#499,#479,.T.);
#605=EDGE_CURVE('',#499,#500,#206,.T.);
#606=EDGE_CURVE('',#500,#500,#480,.T.);
#607=EDGE_CURVE('',#501,#501,#481,.T.);
#608=EDGE_CURVE('',#501,#502,#207,.T.);
#609=EDGE_CURVE('',#502,#502,#482,.T.);
#610=EDGE_CURVE('',#503,#503,#483,.T.);
#611=EDGE_CURVE('',#503,#504,#208,.T.);
#612=EDGE_CURVE('',#504,#504,#484,.T.);
#613=EDGE_CURVE('',#505,#506,#209,.T.);
#614=EDGE_CURVE('',#506,#507,#210,.T.);
#615=EDGE_CURVE('',#507,#508,#211,.T.);
#616=EDGE_CURVE('',#508,#505,#212,.T.);
#617=EDGE_CURVE('',#508,#509,#485,.T.);
#618=EDGE_CURVE('',#509,#510,#213,.T.);
#619=EDGE_CURVE('',#505,#510,#486,.T.);
#620=EDGE_CURVE('',#507,#511,#214,.T.);
#621=EDGE_CURVE('',#512,#511,#215,.T.);
#622=EDGE_CURVE('',#512,#513,#216,.T.);
#623=EDGE_CURVE('',#513,#514,#217,.T.);
#624=EDGE_CURVE('',#514,#515,#218,.T.);
#625=EDGE_CURVE('',#515,#516,#219,.T.);
#626=EDGE_CURVE('',#517,#516,#220,.T.);
#627=EDGE_CURVE('',#518,#517,#221,.T.);
#628=EDGE_CURVE('',#519,#518,#222,.T.);
#629=EDGE_CURVE('',#519,#520,#223,.T.);
#630=EDGE_CURVE('',#521,#520,#224,.T.);
#631=EDGE_CURVE('',#522,#521,#225,.T.);
#632=EDGE_CURVE('',#523,#522,#487,.T.);
#633=EDGE_CURVE('',#524,#523,#226,.T.);
#634=EDGE_CURVE('',#524,#525,#227,.T.);
#635=EDGE_CURVE('',#525,#526,#228,.T.);
#636=EDGE_CURVE('',#526,#527,#229,.T.);
#637=EDGE_CURVE('',#527,#528,#230,.T.);
#638=EDGE_CURVE('',#528,#529,#231,.T.);
#639=EDGE_CURVE('',#529,#530,#232,.T.);
#640=EDGE_CURVE('',#530,#531,#233,.T.);
#641=EDGE_CURVE('',#531,#532,#234,.T.);
#642=EDGE_CURVE('',#532,#533,#235,.T.);
#643=EDGE_CURVE('',#533,#534,#236,.T.);
#644=EDGE_CURVE('',#534,#535,#237,.T.);
#645=EDGE_CURVE('',#535,#509,#238,.T.);
#646=EDGE_CURVE('',#536,#536,#488,.T.);
#647=EDGE_CURVE('',#537,#537,#489,.T.);
#648=EDGE_CURVE('',#538,#538,#490,.T.);
#649=EDGE_CURVE('',#539,#539,#491,.T.);
#650=EDGE_CURVE('',#540,#541,#239,.T.);
#651=EDGE_CURVE('',#541,#522,#240,.T.);
#652=EDGE_CURVE('',#521,#540,#241,.T.);
#653=EDGE_CURVE('',#520,#542,#242,.T.);
#654=EDGE_CURVE('',#540,#542,#243,.T.);
#655=EDGE_CURVE('',#543,#544,#244,.T.);
#656=EDGE_CURVE('',#543,#545,#245,.T.);
#657=EDGE_CURVE('',#545,#546,#246,.T.);
#658=EDGE_CURVE('',#544,#546,#247,.T.);
#659=EDGE_CURVE('',#547,#543,#248,.T.);
#660=EDGE_CURVE('',#547,#548,#249,.T.);
#661=EDGE_CURVE('',#548,#545,#250,.T.);
#662=EDGE_CURVE('',#549,#547,#251,.T.);
#663=EDGE_CURVE('',#549,#550,#252,.T.);
#664=EDGE_CURVE('',#550,#548,#253,.T.);
#665=EDGE_CURVE('',#544,#549,#254,.T.);
#666=EDGE_CURVE('',#546,#550,#255,.T.);
#667=EDGE_CURVE('',#539,#551,#256,.T.);
#668=EDGE_CURVE('',#551,#551,#492,.T.);
#669=EDGE_CURVE('',#532,#552,#257,.T.);
#670=EDGE_CURVE('',#552,#553,#258,.T.);
#671=EDGE_CURVE('',#533,#553,#259,.T.);
#672=EDGE_CURVE('',#554,#552,#260,.T.);
#673=EDGE_CURVE('',#555,#554,#261,.T.);
#674=EDGE_CURVE('',#553,#555,#262,.T.);
#675=EDGE_CURVE('',#526,#556,#263,.T.);
#676=EDGE_CURVE('',#556,#557,#264,.T.);
#677=EDGE_CURVE('',#527,#557,#265,.T.);
#678=EDGE_CURVE('',#558,#556,#266,.T.);
#679=EDGE_CURVE('',#559,#558,#267,.T.);
#680=EDGE_CURVE('',#557,#559,#268,.T.);
#681=EDGE_CURVE('',#554,#560,#269,.T.);
#682=EDGE_CURVE('',#560,#561,#270,.T.);
#683=EDGE_CURVE('',#555,#561,#271,.T.);
#684=EDGE_CURVE('',#558,#562,#272,.T.);
#685=EDGE_CURVE('',#562,#563,#273,.T.);
#686=EDGE_CURVE('',#559,#563,#274,.T.);
#687=EDGE_CURVE('',#561,#564,#275,.T.);
#688=EDGE_CURVE('',#534,#564,#276,.T.);
#689=EDGE_CURVE('',#565,#531,#277,.T.);
#690=EDGE_CURVE('',#565,#560,#278,.T.);
#691=EDGE_CURVE('',#566,#565,#279,.T.);
#692=EDGE_CURVE('',#567,#566,#280,.T.);
#693=EDGE_CURVE('',#568,#567,#281,.T.);
#694=EDGE_CURVE('',#569,#568,#282,.T.);
#695=EDGE_CURVE('',#564,#569,#283,.T.);
#696=EDGE_CURVE('',#563,#570,#284,.T.);
#697=EDGE_CURVE('',#528,#570,#285,.T.);
#698=EDGE_CURVE('',#571,#525,#286,.T.);
#699=EDGE_CURVE('',#571,#562,#287,.T.);
#700=EDGE_CURVE('',#572,#571,#288,.T.);
#701=EDGE_CURVE('',#573,#572,#289,.T.);
#702=EDGE_CURVE('',#574,#573,#290,.T.);
#703=EDGE_CURVE('',#575,#574,#291,.T.);
#704=EDGE_CURVE('',#570,#575,#292,.T.);
#705=EDGE_CURVE('',#569,#576,#293,.T.);
#706=EDGE_CURVE('',#577,#576,#294,.T.);
#707=EDGE_CURVE('',#535,#577,#295,.T.);
#708=EDGE_CURVE('',#575,#578,#296,.T.);
#709=EDGE_CURVE('',#579,#578,#297,.T.);
#710=EDGE_CURVE('',#529,#579,#298,.T.);
#711=EDGE_CURVE('',#580,#580,#493,.T.);
#712=EDGE_CURVE('',#580,#538,#299,.T.);
#713=EDGE_CURVE('',#581,#581,#494,.T.);
#714=EDGE_CURVE('',#581,#537,#300,.T.);
#715=EDGE_CURVE('',#582,#582,#495,.T.);
#716=EDGE_CURVE('',#582,#536,#301,.T.);
#717=EDGE_CURVE('',#519,#583,#302,.T.);
#718=EDGE_CURVE('',#542,#583,#303,.T.);
#719=EDGE_CURVE('',#584,#541,#496,.T.);
#720=EDGE_CURVE('',#523,#584,#304,.T.);
#721=EDGE_CURVE('',#585,#584,#305,.T.);
#722=EDGE_CURVE('',#524,#585,#306,.T.);
#723=EDGE_CURVE('',#586,#585,#307,.T.);
#724=EDGE_CURVE('',#572,#586,#308,.T.);
#725=EDGE_CURVE('',#587,#586,#309,.T.);
#726=EDGE_CURVE('',#573,#587,#310,.T.);
#727=EDGE_CURVE('',#588,#587,#311,.T.);
#728=EDGE_CURVE('',#574,#588,#312,.T.);
#729=EDGE_CURVE('',#578,#588,#313,.T.);
#730=EDGE_CURVE('',#589,#579,#314,.T.);
#731=EDGE_CURVE('',#530,#589,#315,.T.);
#732=EDGE_CURVE('',#590,#589,#316,.T.);
#733=EDGE_CURVE('',#566,#590,#317,.T.);
#734=EDGE_CURVE('',#591,#590,#318,.T.);
#735=EDGE_CURVE('',#567,#591,#319,.T.);
#736=EDGE_CURVE('',#592,#591,#320,.T.);
#737=EDGE_CURVE('',#568,#592,#321,.T.);
#738=EDGE_CURVE('',#576,#592,#322,.T.);
#739=EDGE_CURVE('',#510,#577,#323,.T.);
#740=EDGE_CURVE('',#593,#506,#324,.T.);
#741=EDGE_CURVE('',#511,#593,#325,.T.);
#742=EDGE_CURVE('',#594,#593,#326,.T.);
#743=EDGE_CURVE('',#512,#594,#327,.T.);
#744=EDGE_CURVE('',#595,#594,#328,.T.);
#745=EDGE_CURVE('',#513,#595,#329,.T.);
#746=EDGE_CURVE('',#596,#595,#330,.T.);
#747=EDGE_CURVE('',#514,#596,#331,.T.);
#748=EDGE_CURVE('',#597,#596,#332,.T.);
#749=EDGE_CURVE('',#515,#597,#333,.T.);
#750=EDGE_CURVE('',#598,#597,#334,.T.);
#751=EDGE_CURVE('',#516,#598,#335,.T.);
#752=EDGE_CURVE('',#599,#598,#336,.T.);
#753=EDGE_CURVE('',#517,#599,#337,.T.);
#754=EDGE_CURVE('',#600,#599,#338,.T.);
#755=EDGE_CURVE('',#518,#600,#339,.T.);
#756=EDGE_CURVE('',#583,#600,#340,.T.);
#757=ORIENTED_EDGE('',*,*,#601,.F.);
#758=ORIENTED_EDGE('',*,*,#602,.T.);
#759=ORIENTED_EDGE('',*,*,#603,.F.);
#760=ORIENTED_EDGE('',*,*,#602,.F.);
#761=ORIENTED_EDGE('',*,*,#604,.F.);
#762=ORIENTED_EDGE('',*,*,#605,.T.);
#763=ORIENTED_EDGE('',*,*,#606,.F.);
#764=ORIENTED_EDGE('',*,*,#605,.F.);
#765=ORIENTED_EDGE('',*,*,#607,.F.);
#766=ORIENTED_EDGE('',*,*,#608,.T.);
#767=ORIENTED_EDGE('',*,*,#609,.F.);
#768=ORIENTED_EDGE('',*,*,#608,.F.);
#769=ORIENTED_EDGE('',*,*,#610,.F.);
#770=ORIENTED_EDGE('',*,*,#611,.T.);
#771=ORIENTED_EDGE('',*,*,#612,.F.);
#772=ORIENTED_EDGE('',*,*,#611,.F.);
#773=ORIENTED_EDGE('',*,*,#613,.T.);
#774=ORIENTED_EDGE('',*,*,#614,.T.);
#775=ORIENTED_EDGE('',*,*,#615,.T.);
#776=ORIENTED_EDGE('',*,*,#616,.T.);
#777=ORIENTED_EDGE('',*,*,#616,.F.);
#778=ORIENTED_EDGE('',*,*,#617,.T.);
#779=ORIENTED_EDGE('',*,*,#618,.T.);
#780=ORIENTED_EDGE('',*,*,#619,.F.);
#781=ORIENTED_EDGE('',*,*,#615,.F.);
#782=ORIENTED_EDGE('',*,*,#620,.T.);
#783=ORIENTED_EDGE('',*,*,#621,.F.);
#784=ORIENTED_EDGE('',*,*,#622,.T.);
#785=ORIENTED_EDGE('',*,*,#623,.T.);
#786=ORIENTED_EDGE('',*,*,#624,.T.);
#787=ORIENTED_EDGE('',*,*,#625,.T.);
#788=ORIENTED_EDGE('',*,*,#626,.F.);
#789=ORIENTED_EDGE('',*,*,#627,.F.);
#790=ORIENTED_EDGE('',*,*,#628,.F.);
#791=ORIENTED_EDGE('',*,*,#629,.T.);
#792=ORIENTED_EDGE('',*,*,#630,.F.);
#793=ORIENTED_EDGE('',*,*,#631,.F.);
#794=ORIENTED_EDGE('',*,*,#632,.F.);
#795=ORIENTED_EDGE('',*,*,#633,.F.);
#796=ORIENTED_EDGE('',*,*,#634,.T.);
#797=ORIENTED_EDGE('',*,*,#635,.T.);
#798=ORIENTED_EDGE('',*,*,#636,.T.);
#799=ORIENTED_EDGE('',*,*,#637,.T.);
#800=ORIENTED_EDGE('',*,*,#638,.T.);
#801=ORIENTED_EDGE('',*,*,#639,.T.);
#802=ORIENTED_EDGE('',*,*,#640,.T.);
#803=ORIENTED_EDGE('',*,*,#641,.T.);
#804=ORIENTED_EDGE('',*,*,#642,.T.);
#805=ORIENTED_EDGE('',*,*,#643,.T.);
#806=ORIENTED_EDGE('',*,*,#644,.T.);
#807=ORIENTED_EDGE('',*,*,#645,.T.);
#808=ORIENTED_EDGE('',*,*,#617,.F.);
#809=ORIENTED_EDGE('',*,*,#646,.F.);
#810=ORIENTED_EDGE('',*,*,#647,.F.);
#811=ORIENTED_EDGE('',*,*,#648,.F.);
#812=ORIENTED_EDGE('',*,*,#649,.T.);
#813=ORIENTED_EDGE('',*,*,#612,.T.);
#814=ORIENTED_EDGE('',*,*,#609,.T.);
#815=ORIENTED_EDGE('',*,*,#606,.T.);
#816=ORIENTED_EDGE('',*,*,#603,.T.);
#817=ORIENTED_EDGE('',*,*,#650,.T.);
#818=ORIENTED_EDGE('',*,*,#651,.T.);
#819=ORIENTED_EDGE('',*,*,#631,.T.);
#820=ORIENTED_EDGE('',*,*,#652,.T.);
#821=ORIENTED_EDGE('',*,*,#652,.F.);
#822=ORIENTED_EDGE('',*,*,#630,.T.);
#823=ORIENTED_EDGE('',*,*,#653,.T.);
#824=ORIENTED_EDGE('',*,*,#654,.F.);
#825=ORIENTED_EDGE('',*,*,#655,.F.);
#826=ORIENTED_EDGE('',*,*,#656,.T.);
#827=ORIENTED_EDGE('',*,*,#657,.T.);
#828=ORIENTED_EDGE('',*,*,#658,.F.);
#829=ORIENTED_EDGE('',*,*,#659,.F.);
#830=ORIENTED_EDGE('',*,*,#660,.T.);
#831=ORIENTED_EDGE('',*,*,#661,.T.);
#832=ORIENTED_EDGE('',*,*,#656,.F.);
#833=ORIENTED_EDGE('',*,*,#662,.F.);
#834=ORIENTED_EDGE('',*,*,#663,.T.);
#835=ORIENTED_EDGE('',*,*,#664,.T.);
#836=ORIENTED_EDGE('',*,*,#660,.F.);
#837=ORIENTED_EDGE('',*,*,#665,.F.);
#838=ORIENTED_EDGE('',*,*,#658,.T.);
#839=ORIENTED_EDGE('',*,*,#666,.T.);
#840=ORIENTED_EDGE('',*,*,#663,.F.);
#841=ORIENTED_EDGE('',*,*,#666,.F.);
#842=ORIENTED_EDGE('',*,*,#657,.F.);
#843=ORIENTED_EDGE('',*,*,#661,.F.);
#844=ORIENTED_EDGE('',*,*,#664,.F.);
#845=ORIENTED_EDGE('',*,*,#649,.F.);
#846=ORIENTED_EDGE('',*,*,#667,.T.);
#847=ORIENTED_EDGE('',*,*,#668,.T.);
#848=ORIENTED_EDGE('',*,*,#667,.F.);
#849=ORIENTED_EDGE('',*,*,#668,.F.);
#850=ORIENTED_EDGE('',*,*,#655,.T.);
#851=ORIENTED_EDGE('',*,*,#665,.T.);
#852=ORIENTED_EDGE('',*,*,#662,.T.);
#853=ORIENTED_EDGE('',*,*,#659,.T.);
#854=ORIENTED_EDGE('',*,*,#642,.F.);
#855=ORIENTED_EDGE('',*,*,#669,.T.);
#856=ORIENTED_EDGE('',*,*,#670,.T.);
#857=ORIENTED_EDGE('',*,*,#671,.F.);
#858=ORIENTED_EDGE('',*,*,#672,.F.);
#859=ORIENTED_EDGE('',*,*,#673,.F.);
#860=ORIENTED_EDGE('',*,*,#674,.F.);
#861=ORIENTED_EDGE('',*,*,#670,.F.);
#862=ORIENTED_EDGE('',*,*,#636,.F.);
#863=ORIENTED_EDGE('',*,*,#675,.T.);
#864=ORIENTED_EDGE('',*,*,#676,.T.);
#865=ORIENTED_EDGE('',*,*,#677,.F.);
#866=ORIENTED_EDGE('',*,*,#678,.F.);
#867=ORIENTED_EDGE('',*,*,#679,.F.);
#868=ORIENTED_EDGE('',*,*,#680,.F.);
#869=ORIENTED_EDGE('',*,*,#676,.F.);
#870=ORIENTED_EDGE('',*,*,#673,.T.);
#871=ORIENTED_EDGE('',*,*,#681,.T.);
#872=ORIENTED_EDGE('',*,*,#682,.T.);
#873=ORIENTED_EDGE('',*,*,#683,.F.);
#874=ORIENTED_EDGE('',*,*,#679,.T.);
#875=ORIENTED_EDGE('',*,*,#684,.T.);
#876=ORIENTED_EDGE('',*,*,#685,.T.);
#877=ORIENTED_EDGE('',*,*,#686,.F.);
#878=ORIENTED_EDGE('',*,*,#643,.F.);
#879=ORIENTED_EDGE('',*,*,#671,.T.);
#880=ORIENTED_EDGE('',*,*,#674,.T.);
#881=ORIENTED_EDGE('',*,*,#683,.T.);
#882=ORIENTED_EDGE('',*,*,#687,.T.);
#883=ORIENTED_EDGE('',*,*,#688,.F.);
#884=ORIENTED_EDGE('',*,*,#641,.F.);
#885=ORIENTED_EDGE('',*,*,#689,.F.);
#886=ORIENTED_EDGE('',*,*,#690,.T.);
#887=ORIENTED_EDGE('',*,*,#681,.F.);
#888=ORIENTED_EDGE('',*,*,#672,.T.);
#889=ORIENTED_EDGE('',*,*,#669,.F.);
#890=ORIENTED_EDGE('',*,*,#690,.F.);
#891=ORIENTED_EDGE('',*,*,#691,.F.);
#892=ORIENTED_EDGE('',*,*,#692,.F.);
#893=ORIENTED_EDGE('',*,*,#693,.F.);
#894=ORIENTED_EDGE('',*,*,#694,.F.);
#895=ORIENTED_EDGE('',*,*,#695,.F.);
#896=ORIENTED_EDGE('',*,*,#687,.F.);
#897=ORIENTED_EDGE('',*,*,#682,.F.);
#898=ORIENTED_EDGE('',*,*,#637,.F.);
#899=ORIENTED_EDGE('',*,*,#677,.T.);
#900=ORIENTED_EDGE('',*,*,#680,.T.);
#901=ORIENTED_EDGE('',*,*,#686,.T.);
#902=ORIENTED_EDGE('',*,*,#696,.T.);
#903=ORIENTED_EDGE('',*,*,#697,.F.);
#904=ORIENTED_EDGE('',*,*,#635,.F.);
#905=ORIENTED_EDGE('',*,*,#698,.F.);
#906=ORIENTED_EDGE('',*,*,#699,.T.);
#907=ORIENTED_EDGE('',*,*,#684,.F.);
#908=ORIENTED_EDGE('',*,*,#678,.T.);
#909=ORIENTED_EDGE('',*,*,#675,.F.);
#910=ORIENTED_EDGE('',*,*,#699,.F.);
#911=ORIENTED_EDGE('',*,*,#700,.F.);
#912=ORIENTED_EDGE('',*,*,#701,.F.);
#913=ORIENTED_EDGE('',*,*,#702,.F.);
#914=ORIENTED_EDGE('',*,*,#703,.F.);
#915=ORIENTED_EDGE('',*,*,#704,.F.);
#916=ORIENTED_EDGE('',*,*,#696,.F.);
#917=ORIENTED_EDGE('',*,*,#685,.F.);
#918=ORIENTED_EDGE('',*,*,#688,.T.);
#919=ORIENTED_EDGE('',*,*,#695,.T.);
#920=ORIENTED_EDGE('',*,*,#705,.T.);
#921=ORIENTED_EDGE('',*,*,#706,.F.);
#922=ORIENTED_EDGE('',*,*,#707,.F.);
#923=ORIENTED_EDGE('',*,*,#644,.F.);
#924=ORIENTED_EDGE('',*,*,#697,.T.);
#925=ORIENTED_EDGE('',*,*,#704,.T.);
#926=ORIENTED_EDGE('',*,*,#708,.T.);
#927=ORIENTED_EDGE('',*,*,#709,.F.);
#928=ORIENTED_EDGE('',*,*,#710,.F.);
#929=ORIENTED_EDGE('',*,*,#638,.F.);
#930=ORIENTED_EDGE('',*,*,#711,.F.);
#931=ORIENTED_EDGE('',*,*,#712,.T.);
#932=ORIENTED_EDGE('',*,*,#648,.T.);
#933=ORIENTED_EDGE('',*,*,#712,.F.);
#934=ORIENTED_EDGE('',*,*,#713,.F.);
#935=ORIENTED_EDGE('',*,*,#714,.T.);
#936=ORIENTED_EDGE('',*,*,#647,.T.);
#937=ORIENTED_EDGE('',*,*,#714,.F.);
#938=ORIENTED_EDGE('',*,*,#715,.F.);
#939=ORIENTED_EDGE('',*,*,#716,.T.);
#940=ORIENTED_EDGE('',*,*,#646,.T.);
#941=ORIENTED_EDGE('',*,*,#716,.F.);
#942=ORIENTED_EDGE('',*,*,#629,.F.);
#943=ORIENTED_EDGE('',*,*,#717,.T.);
#944=ORIENTED_EDGE('',*,*,#718,.F.);
#945=ORIENTED_EDGE('',*,*,#653,.F.);
#946=ORIENTED_EDGE('',*,*,#651,.F.);
#947=ORIENTED_EDGE('',*,*,#719,.F.);
#948=ORIENTED_EDGE('',*,*,#720,.F.);
#949=ORIENTED_EDGE('',*,*,#632,.T.);
#950=ORIENTED_EDGE('',*,*,#633,.T.);
#951=ORIENTED_EDGE('',*,*,#720,.T.);
#952=ORIENTED_EDGE('',*,*,#721,.F.);
#953=ORIENTED_EDGE('',*,*,#722,.F.);
#954=ORIENTED_EDGE('',*,*,#698,.T.);
#955=ORIENTED_EDGE('',*,*,#634,.F.);
#956=ORIENTED_EDGE('',*,*,#722,.T.);
#957=ORIENTED_EDGE('',*,*,#723,.F.);
#958=ORIENTED_EDGE('',*,*,#724,.F.);
#959=ORIENTED_EDGE('',*,*,#700,.T.);
#960=ORIENTED_EDGE('',*,*,#701,.T.);
#961=ORIENTED_EDGE('',*,*,#724,.T.);
#962=ORIENTED_EDGE('',*,*,#725,.F.);
#963=ORIENTED_EDGE('',*,*,#726,.F.);
#964=ORIENTED_EDGE('',*,*,#702,.T.);
#965=ORIENTED_EDGE('',*,*,#726,.T.);
#966=ORIENTED_EDGE('',*,*,#727,.F.);
#967=ORIENTED_EDGE('',*,*,#728,.F.);
#968=ORIENTED_EDGE('',*,*,#703,.T.);
#969=ORIENTED_EDGE('',*,*,#728,.T.);
#970=ORIENTED_EDGE('',*,*,#729,.F.);
#971=ORIENTED_EDGE('',*,*,#708,.F.);
#972=ORIENTED_EDGE('',*,*,#639,.F.);
#973=ORIENTED_EDGE('',*,*,#710,.T.);
#974=ORIENTED_EDGE('',*,*,#730,.F.);
#975=ORIENTED_EDGE('',*,*,#731,.F.);
#976=ORIENTED_EDGE('',*,*,#689,.T.);
#977=ORIENTED_EDGE('',*,*,#640,.F.);
#978=ORIENTED_EDGE('',*,*,#731,.T.);
#979=ORIENTED_EDGE('',*,*,#732,.F.);
#980=ORIENTED_EDGE('',*,*,#733,.F.);
#981=ORIENTED_EDGE('',*,*,#691,.T.);
#982=ORIENTED_EDGE('',*,*,#692,.T.);
#983=ORIENTED_EDGE('',*,*,#733,.T.);
#984=ORIENTED_EDGE('',*,*,#734,.F.);
#985=ORIENTED_EDGE('',*,*,#735,.F.);
#986=ORIENTED_EDGE('',*,*,#693,.T.);
#987=ORIENTED_EDGE('',*,*,#735,.T.);
#988=ORIENTED_EDGE('',*,*,#736,.F.);
#989=ORIENTED_EDGE('',*,*,#737,.F.);
#990=ORIENTED_EDGE('',*,*,#694,.T.);
#991=ORIENTED_EDGE('',*,*,#737,.T.);
#992=ORIENTED_EDGE('',*,*,#738,.F.);
#993=ORIENTED_EDGE('',*,*,#705,.F.);
#994=ORIENTED_EDGE('',*,*,#645,.F.);
#995=ORIENTED_EDGE('',*,*,#707,.T.);
#996=ORIENTED_EDGE('',*,*,#739,.F.);
#997=ORIENTED_EDGE('',*,*,#618,.F.);
#998=ORIENTED_EDGE('',*,*,#614,.F.);
#999=ORIENTED_EDGE('',*,*,#740,.F.);
#1000=ORIENTED_EDGE('',*,*,#741,.F.);
#1001=ORIENTED_EDGE('',*,*,#620,.F.);
#1002=ORIENTED_EDGE('',*,*,#621,.T.);
#1003=ORIENTED_EDGE('',*,*,#741,.T.);
#1004=ORIENTED_EDGE('',*,*,#742,.F.);
#1005=ORIENTED_EDGE('',*,*,#743,.F.);
#1006=ORIENTED_EDGE('',*,*,#622,.F.);
#1007=ORIENTED_EDGE('',*,*,#743,.T.);
#1008=ORIENTED_EDGE('',*,*,#744,.F.);
#1009=ORIENTED_EDGE('',*,*,#745,.F.);
#1010=ORIENTED_EDGE('',*,*,#623,.F.);
#1011=ORIENTED_EDGE('',*,*,#745,.T.);
#1012=ORIENTED_EDGE('',*,*,#746,.F.);
#1013=ORIENTED_EDGE('',*,*,#747,.F.);
#1014=ORIENTED_EDGE('',*,*,#624,.F.);
#1015=ORIENTED_EDGE('',*,*,#747,.T.);
#1016=ORIENTED_EDGE('',*,*,#748,.F.);
#1017=ORIENTED_EDGE('',*,*,#749,.F.);
#1018=ORIENTED_EDGE('',*,*,#625,.F.);
#1019=ORIENTED_EDGE('',*,*,#749,.T.);
#1020=ORIENTED_EDGE('',*,*,#750,.F.);
#1021=ORIENTED_EDGE('',*,*,#751,.F.);
#1022=ORIENTED_EDGE('',*,*,#626,.T.);
#1023=ORIENTED_EDGE('',*,*,#751,.T.);
#1024=ORIENTED_EDGE('',*,*,#752,.F.);
#1025=ORIENTED_EDGE('',*,*,#753,.F.);
#1026=ORIENTED_EDGE('',*,*,#627,.T.);
#1027=ORIENTED_EDGE('',*,*,#753,.T.);
#1028=ORIENTED_EDGE('',*,*,#754,.F.);
#1029=ORIENTED_EDGE('',*,*,#755,.F.);
#1030=ORIENTED_EDGE('',*,*,#628,.T.);
#1031=ORIENTED_EDGE('',*,*,#755,.T.);
#1032=ORIENTED_EDGE('',*,*,#756,.F.);
#1033=ORIENTED_EDGE('',*,*,#717,.F.);
#1034=ORIENTED_EDGE('',*,*,#613,.F.);
#1035=ORIENTED_EDGE('',*,*,#619,.T.);
#1036=ORIENTED_EDGE('',*,*,#739,.T.);
#1037=ORIENTED_EDGE('',*,*,#706,.T.);
#1038=ORIENTED_EDGE('',*,*,#738,.T.);
#1039=ORIENTED_EDGE('',*,*,#736,.T.);
#1040=ORIENTED_EDGE('',*,*,#734,.T.);
#1041=ORIENTED_EDGE('',*,*,#732,.T.);
#1042=ORIENTED_EDGE('',*,*,#730,.T.);
#1043=ORIENTED_EDGE('',*,*,#709,.T.);
#1044=ORIENTED_EDGE('',*,*,#729,.T.);
#1045=ORIENTED_EDGE('',*,*,#727,.T.);
#1046=ORIENTED_EDGE('',*,*,#725,.T.);
#1047=ORIENTED_EDGE('',*,*,#723,.T.);
#1048=ORIENTED_EDGE('',*,*,#721,.T.);
#1049=ORIENTED_EDGE('',*,*,#719,.T.);
#1050=ORIENTED_EDGE('',*,*,#650,.F.);
#1051=ORIENTED_EDGE('',*,*,#654,.T.);
#1052=ORIENTED_EDGE('',*,*,#718,.T.);
#1053=ORIENTED_EDGE('',*,*,#756,.T.);
#1054=ORIENTED_EDGE('',*,*,#754,.T.);
#1055=ORIENTED_EDGE('',*,*,#752,.T.);
#1056=ORIENTED_EDGE('',*,*,#750,.T.);
#1057=ORIENTED_EDGE('',*,*,#748,.T.);
#1058=ORIENTED_EDGE('',*,*,#746,.T.);
#1059=ORIENTED_EDGE('',*,*,#744,.T.);
#1060=ORIENTED_EDGE('',*,*,#742,.T.);
#1061=ORIENTED_EDGE('',*,*,#740,.T.);
#1062=ORIENTED_EDGE('',*,*,#711,.T.);
#1063=ORIENTED_EDGE('',*,*,#713,.T.);
#1064=ORIENTED_EDGE('',*,*,#715,.T.);
#1065=ORIENTED_EDGE('',*,*,#610,.T.);
#1066=ORIENTED_EDGE('',*,*,#607,.T.);
#1067=ORIENTED_EDGE('',*,*,#604,.T.);
#1068=ORIENTED_EDGE('',*,*,#601,.T.);
#1069=CYLINDRICAL_SURFACE('',#1149,1.95000000000001);
#1070=CYLINDRICAL_SURFACE('',#1152,1.95000000000001);
#1071=CYLINDRICAL_SURFACE('',#1155,1.95);
#1072=CYLINDRICAL_SURFACE('',#1158,1.95);
#1073=CYLINDRICAL_SURFACE('',#1162,115.);
#1074=CYLINDRICAL_SURFACE('',#1178,11.025);
#1075=CYLINDRICAL_SURFACE('',#1195,1.95);
#1076=CYLINDRICAL_SURFACE('',#1197,1.95);
#1077=CYLINDRICAL_SURFACE('',#1199,1.95);
#1078=CYLINDRICAL_SURFACE('',#1202,115.);
#1079=ADVANCED_FACE('',(#77),#1069,.F.);
#1080=ADVANCED_FACE('',(#78),#1070,.F.);
#1081=ADVANCED_FACE('',(#79),#1071,.F.);
#1082=ADVANCED_FACE('',(#80),#1072,.F.);
#1083=ADVANCED_FACE('',(#81),#31,.T.);
#1084=ADVANCED_FACE('',(#82),#1073,.T.);
#1085=ADVANCED_FACE('',(#83,#15,#16,#17,#18,#19,#20,#21,#22),#32,.F.);
#1086=ADVANCED_FACE('',(#84),#33,.T.);
#1087=ADVANCED_FACE('',(#85),#34,.T.);
#1088=ADVANCED_FACE('',(#86),#35,.F.);
#1089=ADVANCED_FACE('',(#87),#36,.F.);
#1090=ADVANCED_FACE('',(#88),#37,.F.);
#1091=ADVANCED_FACE('',(#89),#38,.F.);
#1092=ADVANCED_FACE('',(#90),#39,.F.);
#1093=ADVANCED_FACE('',(#91),#1074,.F.);
#1094=ADVANCED_FACE('',(#92,#23),#40,.F.);
#1095=ADVANCED_FACE('',(#93),#41,.F.);
#1096=ADVANCED_FACE('',(#94),#42,.F.);
#1097=ADVANCED_FACE('',(#95),#43,.F.);
#1098=ADVANCED_FACE('',(#96),#44,.F.);
#1099=ADVANCED_FACE('',(#97),#45,.F.);
#1100=ADVANCED_FACE('',(#98),#46,.F.);
#1101=ADVANCED_FACE('',(#99),#47,.F.);
#1102=ADVANCED_FACE('',(#100),#48,.F.);
#1103=ADVANCED_FACE('',(#101),#49,.F.);
#1104=ADVANCED_FACE('',(#102),#50,.F.);
#1105=ADVANCED_FACE('',(#103),#51,.F.);
#1106=ADVANCED_FACE('',(#104),#52,.F.);
#1107=ADVANCED_FACE('',(#105),#53,.T.);
#1108=ADVANCED_FACE('',(#106),#54,.T.);
#1109=ADVANCED_FACE('',(#107),#1075,.F.);
#1110=ADVANCED_FACE('',(#108),#1076,.F.);
#1111=ADVANCED_FACE('',(#109),#1077,.F.);
#1112=ADVANCED_FACE('',(#110),#55,.T.);
#1113=ADVANCED_FACE('',(#111),#1078,.T.);
#1114=ADVANCED_FACE('',(#112),#56,.T.);
#1115=ADVANCED_FACE('',(#113),#57,.T.);
#1116=ADVANCED_FACE('',(#114),#58,.T.);
#1117=ADVANCED_FACE('',(#115),#59,.T.);
#1118=ADVANCED_FACE('',(#116),#60,.T.);
#1119=ADVANCED_FACE('',(#117),#61,.T.);
#1120=ADVANCED_FACE('',(#118),#62,.T.);
#1121=ADVANCED_FACE('',(#119),#63,.T.);
#1122=ADVANCED_FACE('',(#120),#64,.T.);
#1123=ADVANCED_FACE('',(#121),#65,.T.);
#1124=ADVANCED_FACE('',(#122),#66,.T.);
#1125=ADVANCED_FACE('',(#123),#67,.T.);
#1126=ADVANCED_FACE('',(#124),#68,.T.);
#1127=ADVANCED_FACE('',(#125),#69,.T.);
#1128=ADVANCED_FACE('',(#126),#70,.T.);
#1129=ADVANCED_FACE('',(#127),#71,.T.);
#1130=ADVANCED_FACE('',(#128),#72,.T.);
#1131=ADVANCED_FACE('',(#129),#73,.T.);
#1132=ADVANCED_FACE('',(#130),#74,.T.);
#1133=ADVANCED_FACE('',(#131),#75,.T.);
#1134=ADVANCED_FACE('',(#132,#24,#25,#26,#27,#28,#29,#30),#76,.T.);
#1135=CLOSED_SHELL('',(#1079,#1080,#1081,#1082,#1083,#1084,#1085,#1086,
#1087,#1088,#1089,#1090,#1091,#1092,#1093,#1094,#1095,#1096,#1097,#1098,
#1099,#1100,#1101,#1102,#1103,#1104,#1105,#1106,#1107,#1108,#1109,#1110,
#1111,#1112,#1113,#1114,#1115,#1116,#1117,#1118,#1119,#1120,#1121,#1122,
#1123,#1124,#1125,#1126,#1127,#1128,#1129,#1130,#1131,#1132,#1133,#1134));
#1136=DERIVED_UNIT_ELEMENT(#1138,1.);
#1137=DERIVED_UNIT_ELEMENT(#1837,-3.);
#1138=(
MASS_UNIT()
NAMED_UNIT(*)
SI_UNIT(.KILO.,.GRAM.)
);
#1139=DERIVED_UNIT((#1136,#1137));
#1140=MEASURE_REPRESENTATION_ITEM('density measure',
POSITIVE_RATIO_MEASURE(7850.),#1139);
#1141=PROPERTY_DEFINITION_REPRESENTATION(#1146,#1143);
#1142=PROPERTY_DEFINITION_REPRESENTATION(#1147,#1144);
#1143=REPRESENTATION('material name',(#1145),#1834);
#1144=REPRESENTATION('density',(#1140),#1834);
#1145=DESCRIPTIVE_REPRESENTATION_ITEM('Acier','Acier');
#1146=PROPERTY_DEFINITION('material property','material name',#1844);
#1147=PROPERTY_DEFINITION('material property','density of part',#1844);
#1148=AXIS2_PLACEMENT_3D('',#1515,#1225,#1226);
#1149=AXIS2_PLACEMENT_3D('',#1516,#1227,#1228);
#1150=AXIS2_PLACEMENT_3D('',#1518,#1229,#1230);
#1151=AXIS2_PLACEMENT_3D('',#1521,#1232,#1233);
#1152=AXIS2_PLACEMENT_3D('',#1522,#1234,#1235);
#1153=AXIS2_PLACEMENT_3D('',#1524,#1236,#1237);
#1154=AXIS2_PLACEMENT_3D('',#1527,#1239,#1240);
#1155=AXIS2_PLACEMENT_3D('',#1528,#1241,#1242);
#1156=AXIS2_PLACEMENT_3D('',#1530,#1243,#1244);
#1157=AXIS2_PLACEMENT_3D('',#1533,#1246,#1247);
#1158=AXIS2_PLACEMENT_3D('',#1534,#1248,#1249);
#1159=AXIS2_PLACEMENT_3D('',#1536,#1250,#1251);
#1160=AXIS2_PLACEMENT_3D('',#1539,#1253,#1254);
#1161=AXIS2_PLACEMENT_3D('',#1540,#1255,#1256);
#1162=AXIS2_PLACEMENT_3D('',#1549,#1261,#1262);
#1163=AXIS2_PLACEMENT_3D('',#1551,#1263,#1264);
#1164=AXIS2_PLACEMENT_3D('',#1554,#1266,#1267);
#1165=AXIS2_PLACEMENT_3D('',#1555,#1268,#1269);
#1166=AXIS2_PLACEMENT_3D('',#1581,#1282,#1283);
#1167=AXIS2_PLACEMENT_3D('',#1608,#1297,#1298);
#1168=AXIS2_PLACEMENT_3D('',#1610,#1299,#1300);
#1169=AXIS2_PLACEMENT_3D('',#1612,#1301,#1302);
#1170=AXIS2_PLACEMENT_3D('',#1614,#1303,#1304);
#1171=AXIS2_PLACEMENT_3D('',#1615,#1305,#1306);
#1172=AXIS2_PLACEMENT_3D('',#1621,#1310,#1311);
#1173=AXIS2_PLACEMENT_3D('',#1625,#1314,#1315);
#1174=AXIS2_PLACEMENT_3D('',#1634,#1320,#1321);
#1175=AXIS2_PLACEMENT_3D('',#1640,#1325,#1326);
#1176=AXIS2_PLACEMENT_3D('',#1646,#1330,#1331);
#1177=AXIS2_PLACEMENT_3D('',#1649,#1334,#1335);
#1178=AXIS2_PLACEMENT_3D('',#1650,#1336,#1337);
#1179=AXIS2_PLACEMENT_3D('',#1653,#1339,#1340);
#1180=AXIS2_PLACEMENT_3D('',#1654,#1341,#1342);
#1181=AXIS2_PLACEMENT_3D('',#1655,#1343,#1344);
#1182=AXIS2_PLACEMENT_3D('',#1661,#1348,#1349);
#1183=AXIS2_PLACEMENT_3D('',#1667,#1353,#1354);
#1184=AXIS2_PLACEMENT_3D('',#1673,#1358,#1359);
#1185=AXIS2_PLACEMENT_3D('',#1679,#1363,#1364);
#1186=AXIS2_PLACEMENT_3D('',#1685,#1368,#1369);
#1187=AXIS2_PLACEMENT_3D('',#1691,#1373,#1374);
#1188=AXIS2_PLACEMENT_3D('',#1695,#1377,#1378);
#1189=AXIS2_PLACEMENT_3D('',#1699,#1381,#1382);
#1190=AXIS2_PLACEMENT_3D('',#1709,#1388,#1389);
#1191=AXIS2_PLACEMENT_3D('',#1713,#1392,#1393);
#1192=AXIS2_PLACEMENT_3D('',#1717,#1396,#1397);
#1193=AXIS2_PLACEMENT_3D('',#1727,#1403,#1404);
#1194=AXIS2_PLACEMENT_3D('',#1733,#1408,#1409);
#1195=AXIS2_PLACEMENT_3D('',#1739,#1413,#1414);
#1196=AXIS2_PLACEMENT_3D('',#1741,#1415,#1416);
#1197=AXIS2_PLACEMENT_3D('',#1743,#1418,#1419);
#1198=AXIS2_PLACEMENT_3D('',#1745,#1420,#1421);
#1199=AXIS2_PLACEMENT_3D('',#1747,#1423,#1424);
#1200=AXIS2_PLACEMENT_3D('',#1749,#1425,#1426);
#1201=AXIS2_PLACEMENT_3D('',#1751,#1428,#1429);
#1202=AXIS2_PLACEMENT_3D('',#1755,#1432,#1433);
#1203=AXIS2_PLACEMENT_3D('',#1757,#1434,#1435);
#1204=AXIS2_PLACEMENT_3D('',#1759,#1437,#1438);
#1205=AXIS2_PLACEMENT_3D('',#1763,#1441,#1442);
#1206=AXIS2_PLACEMENT_3D('',#1767,#1445,#1446);
#1207=AXIS2_PLACEMENT_3D('',#1771,#1449,#1450);
#1208=AXIS2_PLACEMENT_3D('',#1775,#1453,#1454);
#1209=AXIS2_PLACEMENT_3D('',#1777,#1456,#1457);
#1210=AXIS2_PLACEMENT_3D('',#1781,#1460,#1461);
#1211=AXIS2_PLACEMENT_3D('',#1785,#1464,#1465);
#1212=AXIS2_PLACEMENT_3D('',#1789,#1468,#1469);
#1213=AXIS2_PLACEMENT_3D('',#1793,#1472,#1473);
#1214=AXIS2_PLACEMENT_3D('',#1795,#1475,#1476);
#1215=AXIS2_PLACEMENT_3D('',#1797,#1478,#1479);
#1216=AXIS2_PLACEMENT_3D('',#1801,#1482,#1483);
#1217=AXIS2_PLACEMENT_3D('',#1805,#1486,#1487);
#1218=AXIS2_PLACEMENT_3D('',#1809,#1490,#1491);
#1219=AXIS2_PLACEMENT_3D('',#1813,#1494,#1495);
#1220=AXIS2_PLACEMENT_3D('',#1817,#1498,#1499);
#1221=AXIS2_PLACEMENT_3D('',#1821,#1502,#1503);
#1222=AXIS2_PLACEMENT_3D('',#1825,#1506,#1507);
#1223=AXIS2_PLACEMENT_3D('',#1829,#1510,#1511);
#1224=AXIS2_PLACEMENT_3D('',#1831,#1513,#1514);
#1225=DIRECTION('axis',(0.,0.,1.));
#1226=DIRECTION('refdir',(1.,0.,0.));
#1227=DIRECTION('center_axis',(0.,0.,-1.));
#1228=DIRECTION('ref_axis',(-1.,0.,0.));
#1229=DIRECTION('center_axis',(0.,0.,-1.));
#1230=DIRECTION('ref_axis',(-1.,0.,0.));
#1231=DIRECTION('',(0.,0.,-1.));
#1232=DIRECTION('center_axis',(0.,0.,1.));
#1233=DIRECTION('ref_axis',(-1.,0.,0.));
#1234=DIRECTION('center_axis',(0.,0.,-1.));
#1235=DIRECTION('ref_axis',(-1.,0.,0.));
#1236=DIRECTION('center_axis',(0.,0.,-1.));
#1237=DIRECTION('ref_axis',(-1.,0.,0.));
#1238=DIRECTION('',(0.,0.,-1.));
#1239=DIRECTION('center_axis',(0.,0.,1.));
#1240=DIRECTION('ref_axis',(-1.,0.,0.));
#1241=DIRECTION('center_axis',(0.,0.,-1.));
#1242=DIRECTION('ref_axis',(-1.,0.,0.));
#1243=DIRECTION('center_axis',(0.,0.,-1.));
#1244=DIRECTION('ref_axis',(-1.,0.,0.));
#1245=DIRECTION('',(0.,0.,-1.));
#1246=DIRECTION('center_axis',(0.,0.,1.));
#1247=DIRECTION('ref_axis',(-1.,0.,0.));
#1248=DIRECTION('center_axis',(0.,0.,-1.));
#1249=DIRECTION('ref_axis',(-1.,0.,0.));
#1250=DIRECTION('center_axis',(0.,0.,-1.));
#1251=DIRECTION('ref_axis',(-1.,0.,0.));
#1252=DIRECTION('',(0.,0.,-1.));
#1253=DIRECTION('center_axis',(0.,0.,1.));
#1254=DIRECTION('ref_axis',(-1.,0.,0.));
#1255=DIRECTION('center_axis',(0.499484142524708,-0.866323029456309,0.));
#1256=DIRECTION('ref_axis',(0.,0.,-1.));
#1257=DIRECTION('',(-0.866323029456309,-0.499484142524708,0.));
#1258=DIRECTION('',(0.,0.,-1.));
#1259=DIRECTION('',(0.866323029456309,0.499484142524708,0.));
#1260=DIRECTION('',(0.,0.,1.));
#1261=DIRECTION('center_axis',(0.,0.,1.));
#1262=DIRECTION('ref_axis',(-1.,0.,0.));
#1263=DIRECTION('center_axis',(0.,0.,1.));
#1264=DIRECTION('ref_axis',(-1.,0.,0.));
#1265=DIRECTION('',(0.,0.,1.));
#1266=DIRECTION('center_axis',(0.,0.,1.));
#1267=DIRECTION('ref_axis',(-1.,0.,0.));
#1268=DIRECTION('center_axis',(0.,0.,1.));
#1269=DIRECTION('ref_axis',(-1.,0.,0.));
#1270=DIRECTION('',(-1.,0.,0.));
#1271=DIRECTION('',(0.,1.,0.));
#1272=DIRECTION('',(-1.,-1.11022302462516E-15,0.));
#1273=DIRECTION('',(0.,-1.,0.));
#1274=DIRECTION('',(1.,-1.11022302462516E-15,0.));
#1275=DIRECTION('',(0.,-1.,0.));
#1276=DIRECTION('',(1.,-1.11022302462516E-15,0.));
#1277=DIRECTION('',(0.,1.,0.));
#1278=DIRECTION('',(-1.,3.33066907387547E-15,0.));
#1279=DIRECTION('',(0.,-1.,0.));
#1280=DIRECTION('',(-1.,0.,0.));
#1281=DIRECTION('',(-0.866323029456309,0.499484142524708,0.));
#1282=DIRECTION('center_axis',(0.,0.,1.));
#1283=DIRECTION('ref_axis',(-1.,0.,0.));
#1284=DIRECTION('',(0.192179419045508,-0.981359807051079,0.));
#1285=DIRECTION('',(-1.,0.,0.));
#1286=DIRECTION('',(0.,1.,0.));
#1287=DIRECTION('',(-1.,0.,0.));
#1288=DIRECTION('',(-3.41607084500048E-16,-1.,0.));
#1289=DIRECTION('',(-1.,0.,0.));
#1290=DIRECTION('',(4.44089209850063E-16,1.,0.));
#1291=DIRECTION('',(1.,0.,0.));
#1292=DIRECTION('',(1.31473779231926E-15,-1.,0.));
#1293=DIRECTION('',(1.,1.91693184107941E-15,0.));
#1294=DIRECTION('',(-8.54017711250121E-16,1.,0.));
#1295=DIRECTION('',(1.,0.,0.));
#1296=DIRECTION('',(4.43605276087905E-16,1.,0.));
#1297=DIRECTION('center_axis',(0.,0.,-1.));
#1298=DIRECTION('ref_axis',(-1.,0.,0.));
#1299=DIRECTION('center_axis',(0.,0.,-1.));
#1300=DIRECTION('ref_axis',(-1.,0.,0.));
#1301=DIRECTION('center_axis',(0.,0.,-1.));
#1302=DIRECTION('ref_axis',(-1.,0.,0.));
#1303=DIRECTION('center_axis',(0.,0.,1.));
#1304=DIRECTION('ref_axis',(-1.,0.,0.));
#1305=DIRECTION('center_axis',(0.499484142524708,0.866323029456309,0.));
#1306=DIRECTION('ref_axis',(0.,0.,1.));
#1307=DIRECTION('',(0.866323029456309,-0.499484142524708,0.));
#1308=DIRECTION('',(0.,0.,-1.));
#1309=DIRECTION('',(0.,0.,1.));
#1310=DIRECTION('center_axis',(0.,1.,0.));
#1311=DIRECTION('ref_axis',(-1.,0.,0.));
#1312=DIRECTION('',(0.,0.,1.));
#1313=DIRECTION('',(-1.,0.,0.));
#1314=DIRECTION('center_axis',(0.,-1.,0.));
#1315=DIRECTION('ref_axis',(1.,0.,0.));
#1316=DIRECTION('',(1.,0.,0.));
#1317=DIRECTION('',(0.,0.,1.));
#1318=DIRECTION('',(1.,0.,0.));
#1319=DIRECTION('',(0.,0.,1.));
#1320=DIRECTION('center_axis',(-1.,0.,0.));
#1321=DIRECTION('ref_axis',(0.,-1.,0.));
#1322=DIRECTION('',(0.,-1.,0.));
#1323=DIRECTION('',(0.,0.,1.));
#1324=DIRECTION('',(0.,-1.,0.));
#1325=DIRECTION('center_axis',(0.,1.,0.));
#1326=DIRECTION('ref_axis',(-1.,0.,0.));
#1327=DIRECTION('',(-1.,0.,0.));
#1328=DIRECTION('',(0.,0.,1.));
#1329=DIRECTION('',(-1.,0.,0.));
#1330=DIRECTION('center_axis',(1.,0.,0.));
#1331=DIRECTION('ref_axis',(0.,1.,0.));
#1332=DIRECTION('',(0.,1.,0.));
#1333=DIRECTION('',(0.,1.,0.));
#1334=DIRECTION('center_axis',(0.,0.,1.));
#1335=DIRECTION('ref_axis',(1.,0.,0.));
#1336=DIRECTION('center_axis',(0.,0.,1.));
#1337=DIRECTION('ref_axis',(-1.,0.,0.));
#1338=DIRECTION('',(0.,0.,1.));
#1339=DIRECTION('center_axis',(0.,0.,1.));
#1340=DIRECTION('ref_axis',(-1.,0.,0.));
#1341=DIRECTION('center_axis',(0.,0.,1.));
#1342=DIRECTION('ref_axis',(-1.,0.,0.));
#1343=DIRECTION('center_axis',(1.91693184107941E-15,-1.,0.));
#1344=DIRECTION('ref_axis',(1.,1.91693184107941E-15,0.));
#1345=DIRECTION('',(0.,0.,1.));
#1346=DIRECTION('',(1.,1.91693184107941E-15,0.));
#1347=DIRECTION('',(0.,0.,1.));
#1348=DIRECTION('center_axis',(0.,0.,1.));
#1349=DIRECTION('ref_axis',(1.,0.,0.));
#1350=DIRECTION('',(1.31473779231926E-15,-1.,0.));
#1351=DIRECTION('',(-1.,0.,0.));
#1352=DIRECTION('',(4.38245930773089E-16,1.,0.));
#1353=DIRECTION('center_axis',(0.,1.,0.));
#1354=DIRECTION('ref_axis',(-1.,0.,0.));
#1355=DIRECTION('',(0.,0.,1.));
#1356=DIRECTION('',(-1.,0.,0.));
#1357=DIRECTION('',(0.,0.,1.));
#1358=DIRECTION('center_axis',(0.,0.,1.));
#1359=DIRECTION('ref_axis',(1.,0.,0.));
#1360=DIRECTION('',(0.,1.,0.));
#1361=DIRECTION('',(1.,0.,0.));
#1362=DIRECTION('',(0.,-1.,0.));
#1363=DIRECTION('center_axis',(0.,-1.,0.));
#1364=DIRECTION('ref_axis',(1.,0.,0.));
#1365=DIRECTION('',(0.,0.,1.));
#1366=DIRECTION('',(1.,0.,0.));
#1367=DIRECTION('',(0.,0.,1.));
#1368=DIRECTION('center_axis',(0.,1.,0.));
#1369=DIRECTION('ref_axis',(-1.,0.,0.));
#1370=DIRECTION('',(0.,0.,1.));
#1371=DIRECTION('',(-1.,0.,0.));
#1372=DIRECTION('',(0.,0.,1.));
#1373=DIRECTION('center_axis',(1.,8.54017711250121E-16,0.));
#1374=DIRECTION('ref_axis',(-8.54017711250121E-16,1.,0.));
#1375=DIRECTION('',(-8.54017711250121E-16,1.,0.));
#1376=DIRECTION('',(0.,0.,1.));
#1377=DIRECTION('center_axis',(-1.,1.53723188025022E-15,0.));
#1378=DIRECTION('ref_axis',(-1.53723188025022E-15,-1.,0.));
#1379=DIRECTION('',(0.,0.,-1.));
#1380=DIRECTION('',(-1.53723188025022E-15,-1.,0.));
#1381=DIRECTION('center_axis',(0.,0.,1.));
#1382=DIRECTION('ref_axis',(1.,0.,0.));
#1383=DIRECTION('',(-1.,0.,0.));
#1384=DIRECTION('',(2.37904933848248E-15,1.,0.));
#1385=DIRECTION('',(-1.,0.,0.));
#1386=DIRECTION('',(1.98254111540207E-15,-1.,0.));
#1387=DIRECTION('',(-1.,0.,0.));
#1388=DIRECTION('center_axis',(-1.,3.41607084500048E-16,0.));
#1389=DIRECTION('ref_axis',(-3.41607084500048E-16,-1.,0.));
#1390=DIRECTION('',(-3.41607084500048E-16,-1.,0.));
#1391=DIRECTION('',(0.,0.,1.));
#1392=DIRECTION('center_axis',(1.,0.,0.));
#1393=DIRECTION('ref_axis',(0.,1.,0.));
#1394=DIRECTION('',(0.,0.,-1.));
#1395=DIRECTION('',(0.,1.,0.));
#1396=DIRECTION('center_axis',(0.,0.,1.));
#1397=DIRECTION('ref_axis',(1.,0.,0.));
#1398=DIRECTION('',(1.,0.,0.));
#1399=DIRECTION('',(0.,-1.,0.));
#1400=DIRECTION('',(1.,0.,0.));
#1401=DIRECTION('',(5.28677630773884E-16,1.,0.));
#1402=DIRECTION('',(1.,0.,0.));
#1403=DIRECTION('center_axis',(0.,1.,0.));
#1404=DIRECTION('ref_axis',(-1.,0.,0.));
#1405=DIRECTION('',(0.,0.,1.));
#1406=DIRECTION('',(-1.,0.,0.));
#1407=DIRECTION('',(0.,0.,1.));
#1408=DIRECTION('center_axis',(0.,-1.,0.));
#1409=DIRECTION('ref_axis',(1.,0.,0.));
#1410=DIRECTION('',(0.,0.,1.));
#1411=DIRECTION('',(1.,0.,0.));
#1412=DIRECTION('',(0.,0.,1.));
#1413=DIRECTION('center_axis',(0.,0.,1.));
#1414=DIRECTION('ref_axis',(-1.,0.,0.));
#1415=DIRECTION('center_axis',(0.,0.,-1.));
#1416=DIRECTION('ref_axis',(-1.,0.,0.));
#1417=DIRECTION('',(0.,0.,-1.));
#1418=DIRECTION('center_axis',(0.,0.,1.));
#1419=DIRECTION('ref_axis',(-1.,0.,0.));
#1420=DIRECTION('center_axis',(0.,0.,-1.));
#1421=DIRECTION('ref_axis',(-1.,0.,0.));
#1422=DIRECTION('',(0.,0.,-1.));
#1423=DIRECTION('center_axis',(0.,0.,1.));
#1424=DIRECTION('ref_axis',(-1.,0.,0.));
#1425=DIRECTION('center_axis',(0.,0.,-1.));
#1426=DIRECTION('ref_axis',(-1.,0.,0.));
#1427=DIRECTION('',(0.,0.,-1.));
#1428=DIRECTION('center_axis',(1.,0.,0.));
#1429=DIRECTION('ref_axis',(0.,1.,0.));
#1430=DIRECTION('',(0.,0.,1.));
#1431=DIRECTION('',(0.,1.,0.));
#1432=DIRECTION('center_axis',(0.,0.,1.));
#1433=DIRECTION('ref_axis',(-1.,0.,0.));
#1434=DIRECTION('center_axis',(0.,0.,1.));
#1435=DIRECTION('ref_axis',(-1.,0.,0.));
#1436=DIRECTION('',(0.,0.,1.));
#1437=DIRECTION('center_axis',(-0.981359807051079,-0.192179419045508,0.));
#1438=DIRECTION('ref_axis',(0.192179419045508,-0.981359807051079,0.));
#1439=DIRECTION('',(0.192179419045508,-0.981359807051079,0.));
#1440=DIRECTION('',(0.,0.,1.));
#1441=DIRECTION('center_axis',(0.,-1.,0.));
#1442=DIRECTION('ref_axis',(1.,0.,0.));
#1443=DIRECTION('',(1.,0.,0.));
#1444=DIRECTION('',(0.,0.,1.));
#1445=DIRECTION('center_axis',(-1.,0.,0.));
#1446=DIRECTION('ref_axis',(0.,-1.,0.));
#1447=DIRECTION('',(0.,-1.,0.));
#1448=DIRECTION('',(0.,0.,1.));
#1449=DIRECTION('center_axis',(0.,-1.,0.));
#1450=DIRECTION('ref_axis',(1.,0.,0.));
#1451=DIRECTION('',(1.,0.,0.));
#1452=DIRECTION('',(0.,0.,1.));
#1453=DIRECTION('center_axis',(1.,-5.28677630773884E-16,0.));
#1454=DIRECTION('ref_axis',(5.28677630773884E-16,1.,0.));
#1455=DIRECTION('',(5.28677630773884E-16,1.,0.));
#1456=DIRECTION('center_axis',(-1.,4.44089209850063E-16,0.));
#1457=DIRECTION('ref_axis',(-4.44089209850063E-16,-1.,0.));
#1458=DIRECTION('',(-4.44089209850063E-16,-1.,0.));
#1459=DIRECTION('',(0.,0.,1.));
#1460=DIRECTION('center_axis',(0.,1.,0.));
#1461=DIRECTION('ref_axis',(-1.,0.,0.));
#1462=DIRECTION('',(-1.,0.,0.));
#1463=DIRECTION('',(0.,0.,1.));
#1464=DIRECTION('center_axis',(1.,-2.37904933848248E-15,0.));
#1465=DIRECTION('ref_axis',(2.37904933848248E-15,1.,0.));
#1466=DIRECTION('',(2.37904933848248E-15,1.,0.));
#1467=DIRECTION('',(0.,0.,1.));
#1468=DIRECTION('center_axis',(0.,1.,0.));
#1469=DIRECTION('ref_axis',(-1.,0.,0.));
#1470=DIRECTION('',(-1.,0.,0.));
#1471=DIRECTION('',(0.,0.,1.));
#1472=DIRECTION('center_axis',(-1.,-1.98254111540207E-15,0.));
#1473=DIRECTION('ref_axis',(1.98254111540207E-15,-1.,0.));
#1474=DIRECTION('',(1.98254111540207E-15,-1.,0.));
#1475=DIRECTION('center_axis',(-1.,4.43605276087905E-16,0.));
#1476=DIRECTION('ref_axis',(-4.43605276087905E-16,-1.,0.));
#1477=DIRECTION('',(-4.43605276087905E-16,-1.,0.));
#1478=DIRECTION('center_axis',(0.,-1.,0.));
#1479=DIRECTION('ref_axis',(1.,0.,0.));
#1480=DIRECTION('',(1.,0.,0.));
#1481=DIRECTION('',(0.,0.,1.));
#1482=DIRECTION('center_axis',(1.,0.,0.));
#1483=DIRECTION('ref_axis',(0.,1.,0.));
#1484=DIRECTION('',(0.,1.,0.));
#1485=DIRECTION('',(0.,0.,1.));
#1486=DIRECTION('center_axis',(1.11022302462516E-15,-1.,0.));
#1487=DIRECTION('ref_axis',(1.,1.11022302462516E-15,0.));
#1488=DIRECTION('',(1.,1.11022302462516E-15,0.));
#1489=DIRECTION('',(0.,0.,1.));
#1490=DIRECTION('center_axis',(1.,0.,0.));
#1491=DIRECTION('ref_axis',(0.,1.,0.));
#1492=DIRECTION('',(0.,1.,0.));
#1493=DIRECTION('',(0.,0.,1.));
#1494=DIRECTION('center_axis',(1.11022302462516E-15,1.,0.));
#1495=DIRECTION('ref_axis',(-1.,1.11022302462516E-15,0.));
#1496=DIRECTION('',(-1.,1.11022302462516E-15,0.));
#1497=DIRECTION('',(0.,0.,1.));
#1498=DIRECTION('center_axis',(1.,0.,0.));
#1499=DIRECTION('ref_axis',(0.,1.,0.));
#1500=DIRECTION('',(0.,1.,0.));
#1501=DIRECTION('',(0.,0.,1.));
#1502=DIRECTION('center_axis',(-1.11022302462516E-15,-1.,0.));
#1503=DIRECTION('ref_axis',(1.,-1.11022302462516E-15,0.));
#1504=DIRECTION('',(1.,-1.11022302462516E-15,0.));
#1505=DIRECTION('',(0.,0.,1.));
#1506=DIRECTION('center_axis',(1.,0.,0.));
#1507=DIRECTION('ref_axis',(0.,1.,0.));
#1508=DIRECTION('',(0.,1.,0.));
#1509=DIRECTION('',(0.,0.,1.));
#1510=DIRECTION('center_axis',(3.33066907387547E-15,1.,0.));
#1511=DIRECTION('ref_axis',(-1.,3.33066907387547E-15,0.));
#1512=DIRECTION('',(-1.,3.33066907387547E-15,0.));
#1513=DIRECTION('center_axis',(0.,0.,1.));
#1514=DIRECTION('ref_axis',(-1.,0.,0.));
#1515=CARTESIAN_POINT('',(0.,0.,0.));
#1516=CARTESIAN_POINT('Origin',(-18.9,87.296,33.43));
#1517=CARTESIAN_POINT('',(-16.95,87.296,33.43));
#1518=CARTESIAN_POINT('Origin',(-18.9,87.296,33.43));
#1519=CARTESIAN_POINT('',(-16.95,87.296,11.43));
#1520=CARTESIAN_POINT('',(-16.95,87.296,33.43));
#1521=CARTESIAN_POINT('Origin',(-18.9,87.296,11.43));
#1522=CARTESIAN_POINT('Origin',(-18.9,-86.296,33.43));
#1523=CARTESIAN_POINT('',(-16.95,-86.296,33.43));
#1524=CARTESIAN_POINT('Origin',(-18.9,-86.296,33.43));
#1525=CARTESIAN_POINT('',(-16.95,-86.296,11.43));
#1526=CARTESIAN_POINT('',(-16.95,-86.296,33.43));
#1527=CARTESIAN_POINT('Origin',(-18.9,-86.296,11.43));
#1528=CARTESIAN_POINT('Origin',(18.9,87.296,33.43));
#1529=CARTESIAN_POINT('',(20.85,87.296,33.43));
#1530=CARTESIAN_POINT('Origin',(18.9,87.296,33.43));
#1531=CARTESIAN_POINT('',(20.85,87.296,11.43));
#1532=CARTESIAN_POINT('',(20.85,87.296,33.43));
#1533=CARTESIAN_POINT('Origin',(18.9,87.296,11.43));
#1534=CARTESIAN_POINT('Origin',(18.9,-86.296,33.43));
#1535=CARTESIAN_POINT('',(20.85,-86.296,33.43));
#1536=CARTESIAN_POINT('Origin',(18.9,-86.296,33.43));
#1537=CARTESIAN_POINT('',(20.85,-86.296,11.43));
#1538=CARTESIAN_POINT('',(20.85,-86.296,33.43));
#1539=CARTESIAN_POINT('Origin',(18.9,-86.296,11.43));
#1540=CARTESIAN_POINT('Origin',(98.1174841491679,52.8490248826261,11.43));
#1541=CARTESIAN_POINT('',(101.198231645043,54.6252497652523,33.43));
#1542=CARTESIAN_POINT('',(95.0367366532927,51.0728,33.43));
#1543=CARTESIAN_POINT('',(64.4301340215312,33.4263654122988,33.43));
#1544=CARTESIAN_POINT('',(95.0367366532927,51.0728,11.43));
#1545=CARTESIAN_POINT('',(95.0367366532927,51.0728,11.43));
#1546=CARTESIAN_POINT('',(101.198231645043,54.6252497652523,11.43));
#1547=CARTESIAN_POINT('',(64.4301340215312,33.4263654122988,11.43));
#1548=CARTESIAN_POINT('',(101.198231645043,54.6252497652523,11.43));
#1549=CARTESIAN_POINT('Origin',(0.,0.,11.43));
#1550=CARTESIAN_POINT('',(26.4,111.928727322346,11.43));
#1551=CARTESIAN_POINT('Origin',(0.,0.,11.43));
#1552=CARTESIAN_POINT('',(26.4,111.928727322346,33.43));
#1553=CARTESIAN_POINT('',(26.4,111.928727322346,11.43));
#1554=CARTESIAN_POINT('Origin',(0.,0.,33.43));
#1555=CARTESIAN_POINT('Origin',(38.5183683266464,0.517456253390751,11.43));
#1556=CARTESIAN_POINT('',(93.504,51.0728,11.43));
#1557=CARTESIAN_POINT('',(103.036736653293,51.0728,11.43));
#1558=CARTESIAN_POINT('',(93.504,47.6998,11.43));
#1559=CARTESIAN_POINT('',(93.504,-5.9920823943209E-15,11.43));
#1560=CARTESIAN_POINT('',(85.504,47.6998,11.43));
#1561=CARTESIAN_POINT('',(93.504,47.6998,11.43));
#1562=CARTESIAN_POINT('',(85.504,22.6998,11.43));
#1563=CARTESIAN_POINT('',(85.504,47.6998,11.43));
#1564=CARTESIAN_POINT('',(93.504,22.6998,11.43));
#1565=CARTESIAN_POINT('',(85.504,22.6998,11.43));
#1566=CARTESIAN_POINT('',(93.504,-22.6998,11.43));
#1567=CARTESIAN_POINT('',(93.504,0.,11.43));
#1568=CARTESIAN_POINT('',(85.504,-22.6998,11.43));
#1569=CARTESIAN_POINT('',(85.504,-22.6998,11.43));
#1570=CARTESIAN_POINT('',(85.504,-47.6998,11.43));
#1571=CARTESIAN_POINT('',(85.504,-47.6998,11.43));
#1572=CARTESIAN_POINT('',(93.504,-47.6998,11.43));
#1573=CARTESIAN_POINT('',(93.504,-47.6998,11.43));
#1574=CARTESIAN_POINT('',(93.504,-51.0728,11.43));
#1575=CARTESIAN_POINT('',(93.504,0.,11.43));
#1576=CARTESIAN_POINT('',(95.0367366532927,-51.0728,11.43));
#1577=CARTESIAN_POINT('',(103.036736653293,-51.0728,11.43));
#1578=CARTESIAN_POINT('',(101.198231645043,-54.6252497652523,11.43));
#1579=CARTESIAN_POINT('',(64.2062231377982,-33.2972681449279,11.43));
#1580=CARTESIAN_POINT('',(30.4558998496412,-110.893814815564,11.43));
#1581=CARTESIAN_POINT('Origin',(0.,0.,11.43));
#1582=CARTESIAN_POINT('',(26.5397333164069,-90.896,11.43));
#1583=CARTESIAN_POINT('',(24.7772658106233,-81.896,11.43));
#1584=CARTESIAN_POINT('',(13.9,-90.896,11.43));
#1585=CARTESIAN_POINT('',(26.1321356166376,-90.896,11.43));
#1586=CARTESIAN_POINT('',(13.9,-62.696,11.43));
#1587=CARTESIAN_POINT('',(13.9,-38.6892718733046,11.43));
#1588=CARTESIAN_POINT('',(-13.9,-62.696,11.43));
#1589=CARTESIAN_POINT('',(26.2091841633232,-62.696,11.43));
#1590=CARTESIAN_POINT('',(-13.9,-90.896,11.43));
#1591=CARTESIAN_POINT('',(-13.9,-38.6892718733046,11.43));
#1592=CARTESIAN_POINT('',(-26.,-90.896,11.43));
#1593=CARTESIAN_POINT('',(-24.448,-90.896,11.43));
#1594=CARTESIAN_POINT('',(-26.,91.896,11.43));
#1595=CARTESIAN_POINT('',(-26.,81.896,11.43));
#1596=CARTESIAN_POINT('',(-13.9,91.896,11.43));
#1597=CARTESIAN_POINT('',(-26.,91.896,11.43));
#1598=CARTESIAN_POINT('',(-13.9,63.696,11.43));
#1599=CARTESIAN_POINT('',(-13.9,39.7067281266954,11.43));
#1600=CARTESIAN_POINT('',(13.9,63.696,11.43));
#1601=CARTESIAN_POINT('',(12.3091841633231,63.696,11.43));
#1602=CARTESIAN_POINT('',(13.9,91.896,11.43));
#1603=CARTESIAN_POINT('',(13.9000000000001,39.7067281266954,11.43));
#1604=CARTESIAN_POINT('',(26.4,91.896,11.43));
#1605=CARTESIAN_POINT('',(25.9999999999999,91.896,11.43));
#1606=CARTESIAN_POINT('',(26.4,81.896,11.43));
#1607=CARTESIAN_POINT('',(82.454,30.,11.43));
#1608=CARTESIAN_POINT('Origin',(80.504,30.,11.43));
#1609=CARTESIAN_POINT('',(82.454,1.80023745198362E-14,11.43));
#1610=CARTESIAN_POINT('Origin',(80.504,1.77635683940025E-14,11.43));
#1611=CARTESIAN_POINT('',(82.454,-30.,11.43));
#1612=CARTESIAN_POINT('Origin',(80.504,-30.,11.43));
#1613=CARTESIAN_POINT('',(11.025,18.1102,11.43));
#1614=CARTESIAN_POINT('Origin',(-5.51711905268402E-15,18.1102,11.43));
#1615=CARTESIAN_POINT('Origin',(98.1174841491679,-52.8490248826261,11.43));
#1616=CARTESIAN_POINT('',(95.0367366532927,-51.0728,33.43));
#1617=CARTESIAN_POINT('',(101.198231645043,-54.6252497652523,33.43));
#1618=CARTESIAN_POINT('',(64.2062231377982,-33.2972681449279,33.43));
#1619=CARTESIAN_POINT('',(101.198231645043,-54.6252497652523,11.43));
#1620=CARTESIAN_POINT('',(95.0367366532927,-51.0728,11.43));
#1621=CARTESIAN_POINT('Origin',(103.036736653293,-51.0728,11.43));
#1622=CARTESIAN_POINT('',(93.504,-51.0728,33.43));
#1623=CARTESIAN_POINT('',(93.504,-51.0728,11.43));
#1624=CARTESIAN_POINT('',(103.036736653293,-51.0728,33.43));
#1625=CARTESIAN_POINT('Origin',(-6.00000000000001,12.1102,16.73));
#1626=CARTESIAN_POINT('',(-6.00000000000001,12.1102,16.73));
#1627=CARTESIAN_POINT('',(6.,12.1102,16.73));
#1628=CARTESIAN_POINT('',(-3.00000000000001,12.1102,16.73));
#1629=CARTESIAN_POINT('',(-6.00000000000001,12.1102,29.73));
#1630=CARTESIAN_POINT('',(-6.00000000000001,12.1102,16.73));
#1631=CARTESIAN_POINT('',(6.,12.1102,29.73));
#1632=CARTESIAN_POINT('',(-6.00000000000001,12.1102,29.73));
#1633=CARTESIAN_POINT('',(6.,12.1102,16.73));
#1634=CARTESIAN_POINT('Origin',(-6.00000000000001,24.1102,16.73));
#1635=CARTESIAN_POINT('',(-6.00000000000001,24.1102,16.73));
#1636=CARTESIAN_POINT('',(-6.00000000000001,21.1102,16.73));
#1637=CARTESIAN_POINT('',(-6.00000000000001,24.1102,29.73));
#1638=CARTESIAN_POINT('',(-6.00000000000001,24.1102,16.73));
#1639=CARTESIAN_POINT('',(-6.00000000000001,24.1102,29.73));
#1640=CARTESIAN_POINT('Origin',(6.,24.1102,16.73));
#1641=CARTESIAN_POINT('',(6.,24.1102,16.73));
#1642=CARTESIAN_POINT('',(3.,24.1102,16.73));
#1643=CARTESIAN_POINT('',(6.,24.1102,29.73));
#1644=CARTESIAN_POINT('',(6.,24.1102,16.73));
#1645=CARTESIAN_POINT('',(6.,24.1102,29.73));
#1646=CARTESIAN_POINT('Origin',(6.,12.1102,16.73));
#1647=CARTESIAN_POINT('',(6.,15.1102,16.73));
#1648=CARTESIAN_POINT('',(6.,12.1102,29.73));
#1649=CARTESIAN_POINT('Origin',(-5.55111512312578E-15,18.1102,29.73));
#1650=CARTESIAN_POINT('Origin',(-5.51711905268402E-15,18.1102,11.43));
#1651=CARTESIAN_POINT('',(11.025,18.1102,16.73));
#1652=CARTESIAN_POINT('',(11.025,18.1102,11.43));
#1653=CARTESIAN_POINT('Origin',(-5.51711905268402E-15,18.1102,16.73));
#1654=CARTESIAN_POINT('Origin',(-4.44089209850063E-15,18.1102,16.73));
#1655=CARTESIAN_POINT('Origin',(-13.9,63.696,11.43));
#1656=CARTESIAN_POINT('',(-13.9,63.696,14.83));
#1657=CARTESIAN_POINT('',(-13.9,63.696,11.43));
#1658=CARTESIAN_POINT('',(13.9,63.696,14.83));
#1659=CARTESIAN_POINT('',(-13.9,63.696,14.83));
#1660=CARTESIAN_POINT('',(13.9,63.696,11.43));
#1661=CARTESIAN_POINT('Origin',(8.88178419700125E-15,71.296,14.83));
#1662=CARTESIAN_POINT('',(-13.9,78.896,14.83));
#1663=CARTESIAN_POINT('',(-13.9,78.896,14.83));
#1664=CARTESIAN_POINT('',(13.9,78.896,14.83));
#1665=CARTESIAN_POINT('',(-6.95,78.896,14.83));
#1666=CARTESIAN_POINT('',(13.9,63.696,14.83));
#1667=CARTESIAN_POINT('Origin',(13.9,-62.696,11.43));
#1668=CARTESIAN_POINT('',(13.9,-62.696,14.83));
#1669=CARTESIAN_POINT('',(13.9,-62.696,11.43));
#1670=CARTESIAN_POINT('',(-13.9,-62.696,14.83));
#1671=CARTESIAN_POINT('',(13.9,-62.696,14.83));
#1672=CARTESIAN_POINT('',(-13.9,-62.696,11.43));
#1673=CARTESIAN_POINT('Origin',(-1.77635683940025E-14,-70.296,14.83));
#1674=CARTESIAN_POINT('',(13.9,-77.896,14.83));
#1675=CARTESIAN_POINT('',(13.9,-77.896,14.83));
#1676=CARTESIAN_POINT('',(-13.9,-77.896,14.83));
#1677=CARTESIAN_POINT('',(6.94999999999998,-77.896,14.83));
#1678=CARTESIAN_POINT('',(-13.9,-62.696,14.83));
#1679=CARTESIAN_POINT('Origin',(-13.9,78.896,11.43));
#1680=CARTESIAN_POINT('',(-13.9,78.896,21.33));
#1681=CARTESIAN_POINT('',(-13.9,78.896,11.43));
#1682=CARTESIAN_POINT('',(13.9,78.896,21.33));
#1683=CARTESIAN_POINT('',(-13.9,78.896,21.33));
#1684=CARTESIAN_POINT('',(13.9,78.896,11.43));
#1685=CARTESIAN_POINT('Origin',(13.9,-77.896,11.43));
#1686=CARTESIAN_POINT('',(13.9,-77.896,21.33));
#1687=CARTESIAN_POINT('',(13.9,-77.896,11.43));
#1688=CARTESIAN_POINT('',(-13.9,-77.896,21.33));
#1689=CARTESIAN_POINT('',(13.9,-77.896,21.33));
#1690=CARTESIAN_POINT('',(-13.9,-77.896,11.43));
#1691=CARTESIAN_POINT('Origin',(13.9,78.896,11.43));
#1692=CARTESIAN_POINT('',(13.9,91.896,21.33));
#1693=CARTESIAN_POINT('',(13.9,78.896,21.33));
#1694=CARTESIAN_POINT('',(13.9,91.896,11.43));
#1695=CARTESIAN_POINT('Origin',(-13.9,91.896,11.43));
#1696=CARTESIAN_POINT('',(-13.9,91.896,21.33));
#1697=CARTESIAN_POINT('',(-13.9,91.896,11.43));
#1698=CARTESIAN_POINT('',(-13.9,91.896,21.33));
#1699=CARTESIAN_POINT('Origin',(8.88178419700125E-15,85.396,21.33));
#1700=CARTESIAN_POINT('',(-8.47499999999999,91.896,21.33));
#1701=CARTESIAN_POINT('',(-4.23749999999999,91.896,21.33));
#1702=CARTESIAN_POINT('',(-8.47500000000001,83.496,21.33));
#1703=CARTESIAN_POINT('',(-8.47500000000001,84.446,21.33));
#1704=CARTESIAN_POINT('',(8.47500000000003,83.496,21.33));
#1705=CARTESIAN_POINT('',(4.23750000000002,83.496,21.33));
#1706=CARTESIAN_POINT('',(8.47500000000001,91.896,21.33));
#1707=CARTESIAN_POINT('',(8.47500000000002,88.646,21.33));
#1708=CARTESIAN_POINT('',(13.2,91.896,21.33));
#1709=CARTESIAN_POINT('Origin',(-13.9,-77.896,11.43));
#1710=CARTESIAN_POINT('',(-13.9,-90.896,21.33));
#1711=CARTESIAN_POINT('',(-13.9,-77.896,21.33));
#1712=CARTESIAN_POINT('',(-13.9,-90.896,11.43));
#1713=CARTESIAN_POINT('Origin',(13.9,-90.896,11.43));
#1714=CARTESIAN_POINT('',(13.9,-90.896,21.33));
#1715=CARTESIAN_POINT('',(13.9,-90.896,11.43));
#1716=CARTESIAN_POINT('',(13.9,-90.896,21.33));
#1717=CARTESIAN_POINT('Origin',(-1.99840144432528E-14,-84.396,21.33));
#1718=CARTESIAN_POINT('',(8.47499999999998,-90.896,21.33));
#1719=CARTESIAN_POINT('',(4.23749999999998,-90.896,21.33));
#1720=CARTESIAN_POINT('',(8.47499999999998,-82.496,21.33));
#1721=CARTESIAN_POINT('',(8.47499999999998,-83.446,21.33));
#1722=CARTESIAN_POINT('',(-8.47500000000002,-82.496,21.33));
#1723=CARTESIAN_POINT('',(-4.23750000000002,-82.496,21.33));
#1724=CARTESIAN_POINT('',(-8.47500000000002,-90.896,21.33));
#1725=CARTESIAN_POINT('',(-8.47500000000002,-87.646,21.33));
#1726=CARTESIAN_POINT('',(-13.,-90.896,21.33));
#1727=CARTESIAN_POINT('Origin',(26.4,91.896,11.43));
#1728=CARTESIAN_POINT('',(8.47500000000001,91.896,33.43));
#1729=CARTESIAN_POINT('',(8.47500000000001,91.896,11.43));
#1730=CARTESIAN_POINT('',(26.4,91.896,33.43));
#1731=CARTESIAN_POINT('',(25.9999999999999,91.896,33.43));
#1732=CARTESIAN_POINT('',(26.4,91.896,11.43));
#1733=CARTESIAN_POINT('Origin',(-26.,-90.896,11.43));
#1734=CARTESIAN_POINT('',(-8.47500000000002,-90.896,33.43));
#1735=CARTESIAN_POINT('',(-8.47500000000002,-90.896,11.43));
#1736=CARTESIAN_POINT('',(-26.,-90.896,33.43));
#1737=CARTESIAN_POINT('',(-24.448,-90.896,33.43));
#1738=CARTESIAN_POINT('',(-26.,-90.896,11.43));
#1739=CARTESIAN_POINT('Origin',(80.504,-30.,11.43));
#1740=CARTESIAN_POINT('',(82.454,-30.,33.43));
#1741=CARTESIAN_POINT('Origin',(80.504,-30.,33.43));
#1742=CARTESIAN_POINT('',(82.454,-30.,11.43));
#1743=CARTESIAN_POINT('Origin',(80.504,1.77635683940025E-14,11.43));
#1744=CARTESIAN_POINT('',(82.454,1.77635683940025E-14,33.43));
#1745=CARTESIAN_POINT('Origin',(80.504,1.77635683940025E-14,33.43));
#1746=CARTESIAN_POINT('',(82.454,1.80023745198362E-14,11.43));
#1747=CARTESIAN_POINT('Origin',(80.504,30.,11.43));
#1748=CARTESIAN_POINT('',(82.454,30.,33.43));
#1749=CARTESIAN_POINT('Origin',(80.504,30.,33.43));
#1750=CARTESIAN_POINT('',(82.454,30.,11.43));
#1751=CARTESIAN_POINT('Origin',(93.504,-51.0728,11.43));
#1752=CARTESIAN_POINT('',(93.504,-47.6998,33.43));
#1753=CARTESIAN_POINT('',(93.504,-47.6998,11.43));
#1754=CARTESIAN_POINT('',(93.504,0.,33.43));
#1755=CARTESIAN_POINT('Origin',(0.,0.,11.43));
#1756=CARTESIAN_POINT('',(30.4558998496412,-110.893814815564,33.43));
#1757=CARTESIAN_POINT('Origin',(0.,0.,33.43));
#1758=CARTESIAN_POINT('',(30.4558998496412,-110.893814815564,11.43));
#1759=CARTESIAN_POINT('Origin',(26.5397333164069,-90.896,11.43));
#1760=CARTESIAN_POINT('',(26.5397333164069,-90.896,33.43));
#1761=CARTESIAN_POINT('',(24.7772658106233,-81.896,33.43));
#1762=CARTESIAN_POINT('',(26.5397333164069,-90.896,11.43));
#1763=CARTESIAN_POINT('Origin',(8.47499999999998,-90.896,11.43));
#1764=CARTESIAN_POINT('',(8.47499999999998,-90.896,33.43));
#1765=CARTESIAN_POINT('',(26.1321356166376,-90.896,33.43));
#1766=CARTESIAN_POINT('',(8.47499999999998,-90.896,11.43));
#1767=CARTESIAN_POINT('Origin',(8.47499999999998,-82.496,11.43));
#1768=CARTESIAN_POINT('',(8.47499999999998,-82.496,33.43));
#1769=CARTESIAN_POINT('',(8.47499999999998,-90.896,33.43));
#1770=CARTESIAN_POINT('',(8.47499999999998,-82.496,11.43));
#1771=CARTESIAN_POINT('Origin',(-8.47500000000002,-82.496,11.43));
#1772=CARTESIAN_POINT('',(-8.47500000000002,-82.496,33.43));
#1773=CARTESIAN_POINT('',(8.47499999999998,-82.496,33.43));
#1774=CARTESIAN_POINT('',(-8.47500000000002,-82.496,11.43));
#1775=CARTESIAN_POINT('Origin',(-8.47500000000002,-90.896,11.43));
#1776=CARTESIAN_POINT('',(-8.47500000000002,-82.496,33.43));
#1777=CARTESIAN_POINT('Origin',(-26.,91.896,11.43));
#1778=CARTESIAN_POINT('',(-26.,91.896,33.43));
#1779=CARTESIAN_POINT('',(-26.,81.896,33.43));
#1780=CARTESIAN_POINT('',(-26.,91.896,11.43));
#1781=CARTESIAN_POINT('Origin',(-8.47499999999999,91.896,11.43));
#1782=CARTESIAN_POINT('',(-8.47499999999998,91.896,33.43));
#1783=CARTESIAN_POINT('',(-26.,91.896,33.43));
#1784=CARTESIAN_POINT('',(-8.47499999999999,91.896,11.43));
#1785=CARTESIAN_POINT('Origin',(-8.47500000000001,83.496,11.43));
#1786=CARTESIAN_POINT('',(-8.475,83.496,33.43));
#1787=CARTESIAN_POINT('',(-8.47499999999999,91.896,33.43));
#1788=CARTESIAN_POINT('',(-8.47500000000001,83.496,11.43));
#1789=CARTESIAN_POINT('Origin',(8.47500000000003,83.496,11.43));
#1790=CARTESIAN_POINT('',(8.47500000000003,83.496,33.43));
#1791=CARTESIAN_POINT('',(-8.47500000000001,83.496,33.43));
#1792=CARTESIAN_POINT('',(8.47500000000003,83.496,11.43));
#1793=CARTESIAN_POINT('Origin',(8.47500000000001,91.896,11.43));
#1794=CARTESIAN_POINT('',(8.47500000000003,83.496,33.43));
#1795=CARTESIAN_POINT('Origin',(26.4,111.928727322346,11.43));
#1796=CARTESIAN_POINT('',(26.4,81.896,33.43));
#1797=CARTESIAN_POINT('Origin',(93.504,51.0728,11.43));
#1798=CARTESIAN_POINT('',(93.504,51.0728,33.43));
#1799=CARTESIAN_POINT('',(103.036736653293,51.0728,33.43));
#1800=CARTESIAN_POINT('',(93.504,51.0728,11.43));
#1801=CARTESIAN_POINT('Origin',(93.504,47.6998,11.43));
#1802=CARTESIAN_POINT('',(93.504,47.6998,33.43));
#1803=CARTESIAN_POINT('',(93.504,-5.9920823943209E-15,33.43));
#1804=CARTESIAN_POINT('',(93.504,47.6998,11.43));
#1805=CARTESIAN_POINT('Origin',(85.504,47.6998,11.43));
#1806=CARTESIAN_POINT('',(85.504,47.6998,33.43));
#1807=CARTESIAN_POINT('',(93.504,47.6998,33.43));
#1808=CARTESIAN_POINT('',(85.504,47.6998,11.43));
#1809=CARTESIAN_POINT('Origin',(85.504,22.6998,11.43));
#1810=CARTESIAN_POINT('',(85.504,22.6998,33.43));
#1811=CARTESIAN_POINT('',(85.504,47.6998,33.43));
#1812=CARTESIAN_POINT('',(85.504,22.6998,11.43));
#1813=CARTESIAN_POINT('Origin',(93.504,22.6998,11.43));
#1814=CARTESIAN_POINT('',(93.504,22.6998,33.43));
#1815=CARTESIAN_POINT('',(85.504,22.6998,33.43));
#1816=CARTESIAN_POINT('',(93.504,22.6998,11.43));
#1817=CARTESIAN_POINT('Origin',(93.504,-22.6998,11.43));
#1818=CARTESIAN_POINT('',(93.504,-22.6998,33.43));
#1819=CARTESIAN_POINT('',(93.504,0.,33.43));
#1820=CARTESIAN_POINT('',(93.504,-22.6998,11.43));
#1821=CARTESIAN_POINT('Origin',(85.504,-22.6998,11.43));
#1822=CARTESIAN_POINT('',(85.504,-22.6998,33.43));
#1823=CARTESIAN_POINT('',(85.504,-22.6998,33.43));
#1824=CARTESIAN_POINT('',(85.504,-22.6998,11.43));
#1825=CARTESIAN_POINT('Origin',(85.504,-47.6998,11.43));
#1826=CARTESIAN_POINT('',(85.504,-47.6998,33.43));
#1827=CARTESIAN_POINT('',(85.504,-47.6998,33.43));
#1828=CARTESIAN_POINT('',(85.504,-47.6998,11.43));
#1829=CARTESIAN_POINT('Origin',(93.504,-47.6998,11.43));
#1830=CARTESIAN_POINT('',(93.504,-47.6998,33.43));
#1831=CARTESIAN_POINT('Origin',(38.5183683266464,0.517456253390751,33.43));
#1832=UNCERTAINTY_MEASURE_WITH_UNIT(LENGTH_MEASURE(0.01),#1836,
'DISTANCE_ACCURACY_VALUE',
'Maximum model space distance between geometric entities at asserted c
onnectivities');
#1833=UNCERTAINTY_MEASURE_WITH_UNIT(LENGTH_MEASURE(0.01),#1836,
'DISTANCE_ACCURACY_VALUE',
'Maximum model space distance between geometric entities at asserted c
onnectivities');
#1834=(
GEOMETRIC_REPRESENTATION_CONTEXT(3)
GLOBAL_UNCERTAINTY_ASSIGNED_CONTEXT((#1832))
GLOBAL_UNIT_ASSIGNED_CONTEXT((#1836,#1838,#1839))
REPRESENTATION_CONTEXT('','3D')
);
#1835=(
GEOMETRIC_REPRESENTATION_CONTEXT(3)
GLOBAL_UNCERTAINTY_ASSIGNED_CONTEXT((#1833))
GLOBAL_UNIT_ASSIGNED_CONTEXT((#1836,#1838,#1839))
REPRESENTATION_CONTEXT('','3D')
);
#1836=(
LENGTH_UNIT()
NAMED_UNIT(*)
SI_UNIT(.MILLI.,.METRE.)
);
#1837=(
LENGTH_UNIT()
NAMED_UNIT(*)
SI_UNIT($,.METRE.)
);
#1838=(
NAMED_UNIT(*)
PLANE_ANGLE_UNIT()
SI_UNIT($,.RADIAN.)
);
#1839=(
NAMED_UNIT(*)
SI_UNIT($,.STERADIAN.)
SOLID_ANGLE_UNIT()
);
#1840=SHAPE_DEFINITION_REPRESENTATION(#1841,#1842);
#1841=PRODUCT_DEFINITION_SHAPE('',$,#1844);
#1842=SHAPE_REPRESENTATION('',(#1148),#1834);
#1843=PRODUCT_DEFINITION_CONTEXT('part definition',#1848,'design');
#1844=PRODUCT_DEFINITION('2026-09-30-00-27-39-132',
'R1-C4 - Arret en translation v2',#1845,#1843);
#1845=PRODUCT_DEFINITION_FORMATION('',$,#1850);
#1846=PRODUCT_RELATED_PRODUCT_CATEGORY(
'R1-C4 - Arret en translation v2','R1-C4 - Arret en translation v2',(#1850));
#1847=APPLICATION_PROTOCOL_DEFINITION('international standard',
'automotive_design',2009,#1848);
#1848=APPLICATION_CONTEXT(
'Core Data for Automotive Mechanical Design Process');
#1849=PRODUCT_CONTEXT('part definition',#1848,'mechanical');
#1850=PRODUCT('2026-09-30-00-27-39-132',
'R1-C4 - Arret en translation v2',$,(#1849));
#1851=PRESENTATION_STYLE_ASSIGNMENT((#1852));
#1852=SURFACE_STYLE_USAGE(.BOTH.,#1853);
#1853=SURFACE_SIDE_STYLE('',(#1854));
#1854=SURFACE_STYLE_FILL_AREA(#1855);
#1855=FILL_AREA_STYLE('Acier - Satin\X\E9',(#1856));
#1856=FILL_AREA_STYLE_COLOUR('Acier - Satin\X\E9',#1857);
#1857=COLOUR_RGB('Acier - Satin\X\E9',0.627450980392157,0.627450980392157,
0.627450980392157);
ENDSEC;
END-ISO-10303-21;
